<?xml version="1.0" encoding="UTF-8" standalone="no"?>
<!-- Created with Inkscape (http://www.inkscape.org/) -->

<svg
   width="4000"
   height="800"
   viewBox="0 0 1058.3333 211.66666"
   version="1.1"
   id="svg5"
   inkscape:export-filename="bitmap.png"
   inkscape:export-xdpi="300"
   inkscape:export-ydpi="300"
   inkscape:version="1.2 (1:1.2.1+202207142221+cd75a1ee6d)"
   sodipodi:docname="navbar-logo red.svg"
   xml:space="preserve"
   xmlns:inkscape="http://www.inkscape.org/namespaces/inkscape"
   xmlns:sodipodi="http://sodipodi.sourceforge.net/DTD/sodipodi-0.dtd"
   xmlns:xlink="http://www.w3.org/1999/xlink"
   xmlns="http://www.w3.org/2000/svg"
   xmlns:svg="http://www.w3.org/2000/svg"><sodipodi:namedview
     id="namedview7"
     pagecolor="#ffffff"
     bordercolor="#000000"
     borderopacity="0"
     inkscape:showpageshadow="2"
     inkscape:pageopacity="1"
     inkscape:pagecheckerboard="0"
     inkscape:deskcolor="#d1d1d1"
     inkscape:document-units="mm"
     showgrid="false"
     showguides="true"
     inkscape:zoom="0.26040592"
     inkscape:cx="-65.282695"
     inkscape:cy="184.32761"
     inkscape:window-width="1920"
     inkscape:window-height="995"
     inkscape:window-x="0"
     inkscape:window-y="0"
     inkscape:window-maximized="1"
     inkscape:current-layer="svg1105"><sodipodi:guide
       position="1017.7203,74.098297"
       orientation="1,0"
       id="guide2010"
       inkscape:locked="false" /></sodipodi:namedview><defs
     id="defs2"><linearGradient
       id="linearGradient978"
       inkscape:swatch="solid"><stop
         style="stop-color:#000000;stop-opacity:1;"
         offset="0"
         id="stop976" /></linearGradient><linearGradient
       id="linearGradient972"
       inkscape:swatch="solid"><stop
         style="stop-color:#000000;stop-opacity:1;"
         offset="0"
         id="stop970" /></linearGradient><linearGradient
       id="linearGradient4045"
       inkscape:swatch="solid"><stop
         style="stop-color:#f3e5c8;stop-opacity:1;"
         offset="0"
         id="stop4043" /></linearGradient><linearGradient
       id="linearGradient4039"
       inkscape:swatch="solid"><stop
         style="stop-color:#f3e5c8;stop-opacity:1;"
         offset="0"
         id="stop4037" /></linearGradient><linearGradient
       id="linearGradient4025"
       inkscape:swatch="solid"><stop
         style="stop-color:#f3f3f3;stop-opacity:1;"
         offset="0"
         id="stop4023" /></linearGradient><linearGradient
       id="linearGradient1219"
       inkscape:swatch="solid"><stop
         style="stop-color:#000000;stop-opacity:1;"
         offset="0"
         id="stop1217" /></linearGradient><linearGradient
       id="linearGradient1213"
       inkscape:swatch="solid"><stop
         style="stop-color:#000000;stop-opacity:1;"
         offset="0"
         id="stop1211" /></linearGradient><linearGradient
       id="linearGradient9837"
       inkscape:swatch="solid"><stop
         style="stop-color:#7f6047;stop-opacity:1;"
         offset="0"
         id="stop9835" /></linearGradient><linearGradient
       id="linearGradient9827"
       inkscape:swatch="solid"><stop
         style="stop-color:#f3e5c8;stop-opacity:1;"
         offset="0"
         id="stop9825" /></linearGradient><linearGradient
       id="linearGradient9769"
       inkscape:swatch="solid"><stop
         style="stop-color:#7f6047;stop-opacity:1;"
         offset="0"
         id="stop9767" /></linearGradient><linearGradient
       id="linearGradient9360"
       inkscape:swatch="solid"><stop
         style="stop-color:#000000;stop-opacity:1;"
         offset="0"
         id="stop9358" /></linearGradient><linearGradient
       id="linearGradient9147"
       inkscape:swatch="solid"><stop
         style="stop-color:#f7f7f7;stop-opacity:1;"
         offset="0"
         id="stop9145" /></linearGradient><linearGradient
       id="linearGradient9141"
       inkscape:swatch="solid"><stop
         style="stop-color:#ffffff;stop-opacity:1;"
         offset="0"
         id="stop9139" /></linearGradient><linearGradient
       id="linearGradient8997"
       inkscape:swatch="solid"><stop
         style="stop-color:#911f2a;stop-opacity:1;"
         offset="0"
         id="stop8995" /></linearGradient><rect
       x="549.66461"
       y="209.91638"
       width="1457.3186"
       height="152.62451"
       id="rect5792" /><rect
       x="189.00575"
       y="173.15366"
       width="2231.0352"
       height="232.56387"
       id="rect236" /><rect
       x="549.66461"
       y="209.91638"
       width="1457.3186"
       height="152.62451"
       id="rect5792-9" /><linearGradient
       inkscape:collect="always"
       xlink:href="#linearGradient9147"
       id="linearGradient9362"
       x1="1.9073486e-06"
       y1="132.29167"
       x2="687.91669"
       y2="132.29167"
       gradientUnits="userSpaceOnUse"
       gradientTransform="matrix(1.5569421,0,0,0.82547525,-6.35653,-3.3701692)" /><linearGradient
       inkscape:collect="always"
       xlink:href="#linearGradient8997"
       id="linearGradient12395"
       gradientUnits="userSpaceOnUse"
       x1="1034.3992"
       y1="240.3952"
       x2="1577.5227"
       y2="240.3952" /><linearGradient
       inkscape:collect="always"
       xlink:href="#linearGradient8997"
       id="linearGradient12399"
       gradientUnits="userSpaceOnUse"
       gradientTransform="matrix(1.2466057,0,0,1.2466057,-146.15782,-46.148432)"
       x1="280.35397"
       y1="179.17174"
       x2="653.13007"
       y2="179.17174" /><linearGradient
       inkscape:collect="always"
       xlink:href="#linearGradient8997"
       id="linearGradient495"
       gradientUnits="userSpaceOnUse"
       gradientTransform="matrix(0.98840817,0,0,0.98840817,360.82606,-35.36949)"
       x1="280.35397"
       y1="179.17174"
       x2="653.13007"
       y2="179.17174" /><linearGradient
       inkscape:collect="always"
       xlink:href="#linearGradient8997"
       id="linearGradient1602"
       gradientUnits="userSpaceOnUse"
       x1="1034.3992"
       y1="240.3952"
       x2="1577.5227"
       y2="240.3952" /><linearGradient
       inkscape:collect="always"
       xlink:href="#linearGradient8997"
       id="linearGradient1604"
       gradientUnits="userSpaceOnUse"
       gradientTransform="matrix(0.98840817,0,0,0.98840817,360.82606,-35.36949)"
       x1="280.35397"
       y1="179.17174"
       x2="653.13007"
       y2="179.17174" /><linearGradient
       inkscape:collect="always"
       xlink:href="#linearGradient8997"
       id="linearGradient1606"
       gradientUnits="userSpaceOnUse"
       gradientTransform="matrix(1.029029,0,0,1.029029,162.38121,-125.69069)"
       x1="280.35397"
       y1="179.17174"
       x2="653.13007"
       y2="179.17174" /><linearGradient
       inkscape:collect="always"
       xlink:href="#linearGradient8997"
       id="linearGradient1608"
       gradientUnits="userSpaceOnUse"
       x1="244.1702"
       y1="62.954391"
       x2="1023.3756"
       y2="62.954391" /><linearGradient
       inkscape:collect="always"
       xlink:href="#linearGradient8997"
       id="linearGradient2028"
       gradientUnits="userSpaceOnUse"
       gradientTransform="matrix(1.0043879,0,0,1.0043879,-2.3532842,-0.23909159)"
       x1="244.1702"
       y1="62.954391"
       x2="1023.3756"
       y2="62.954391" /><linearGradient
       inkscape:collect="always"
       xlink:href="#linearGradient9147"
       id="linearGradient4027"
       x1="24.865932"
       y1="70.728523"
       x2="125.50032"
       y2="70.728523"
       gradientUnits="userSpaceOnUse" /><linearGradient
       inkscape:collect="always"
       xlink:href="#linearGradient9147"
       id="linearGradient4029"
       x1="33.732403"
       y1="73.798775"
       x2="108.51369"
       y2="73.798775"
       gradientUnits="userSpaceOnUse" /><linearGradient
       inkscape:collect="always"
       xlink:href="#linearGradient9147"
       id="linearGradient4031"
       x1="11.351403"
       y1="74.692223"
       x2="129.04475"
       y2="74.692223"
       gradientUnits="userSpaceOnUse" /><linearGradient
       inkscape:collect="always"
       xlink:href="#linearGradient9147"
       id="linearGradient4033"
       x1="10.510336"
       y1="66.095375"
       x2="131.12247"
       y2="66.095375"
       gradientUnits="userSpaceOnUse" /><linearGradient
       inkscape:collect="always"
       xlink:href="#linearGradient9147"
       id="linearGradient4035"
       x1="25.847109"
       y1="68.99601"
       x2="112.18797"
       y2="68.99601"
       gradientUnits="userSpaceOnUse" /><linearGradient
       inkscape:collect="always"
       xlink:href="#linearGradient9147"
       id="linearGradient4047"
       x1="47.131401"
       y1="70.900002"
       x2="94.668602"
       y2="70.900002"
       gradientUnits="userSpaceOnUse" /><linearGradient
       inkscape:collect="always"
       xlink:href="#linearGradient8997"
       id="linearGradient974"
       x1="241.73093"
       y1="99.71669"
       x2="1026.0894"
       y2="99.71669"
       gradientUnits="userSpaceOnUse" /><linearGradient
       inkscape:collect="always"
       xlink:href="#linearGradient8997"
       id="linearGradient980"
       x1="10.510336"
       y1="70.300735"
       x2="131.12247"
       y2="70.300735"
       gradientUnits="userSpaceOnUse" /><linearGradient
       inkscape:collect="always"
       xlink:href="#linearGradient9147"
       id="linearGradient982"
       gradientUnits="userSpaceOnUse"
       x1="10.510336"
       y1="70.300735"
       x2="131.12247"
       y2="70.300735" /></defs><g
     inkscape:groupmode="layer"
     id="layer2"
     inkscape:label="Layer 2"><rect
       style="opacity:1;fill:url(#linearGradient9362);fill-opacity:1.0;stroke:none;stroke-width:9.25689;stroke-dasharray:none;stroke-opacity:1"
       id="rect7012"
       width="1058.3334"
       height="211.66667"
       x="0"
       y="0" /></g><g
     inkscape:label="Layer 1"
     inkscape:groupmode="layer"
     id="layer1"><g
       id="g1992"
       transform="translate(-8.232327)"
       style="fill-opacity:1.0;fill:url(#linearGradient974)"><g
         aria-label="EAST ASIAN"
         transform="matrix(0.59904259,0,0,0.59904259,-361.56336,-4.9271403)"
         id="text234"
         style="font-weight:300;font-size:125px;font-family:KorolevLiU;-inkscape-font-specification:'KorolevLiU Light';text-align:center;white-space:pre;shape-inside:url(#rect236);display:inline;opacity:1;fill:url(#linearGradient974);stroke-width:24.3024;fill-opacity:1.0"><path
           d="m 1058.0867,217.5202 h -32.25 v 20 h 23.875 v 15 h -23.875 v 20 h 32.25 v 16.5 h -49.5 v -88.125 h 49.5 z"
           style="font-weight:bold;-inkscape-font-specification:'KorolevLiU Bold';fill-opacity:1.0;fill:url(#linearGradient974)"
           id="path2810" /><path
           d="m 1116.4615,289.0202 -4.625,-17.375 h -25.625 l -4.875,17.375 h -17.5 l 25.875,-88.125 h 18.875 l 25.5,88.125 z m -26.625,-32.25 h 18.375 l -9,-34.5 z"
           style="font-weight:bold;-inkscape-font-specification:'KorolevLiU Bold';fill-opacity:1.0;fill:url(#linearGradient974)"
           id="path2812" /><path
           d="m 1180.8363,263.8952 q 0,-3.375 -2.375,-5.75 -2.25,-2.375 -5.875,-3.75 -3.625,-1.5 -8.125,-2.875 -4.5,-1.375 -9,-3.25 -4.375,-2 -8,-4.625 -3.625,-2.75 -6,-7.375 -2.25,-4.75 -2.25,-11.125 0,-12 7.875,-18.875 7.875,-7 21.125,-7 12.875,0 20.75,8 8,8 8,21.5 h -17 q 0,-6.875 -3.25,-10.25 -3.125,-3.5 -8.75,-3.5 -11.5,0 -11.5,10.125 0,4.75 4.25,7.625 4.375,2.875 10.5,4.625 6.125,1.75 12.125,4.125 6.125,2.375 10.375,8 4.375,5.5 4.375,14.25 0,12.375 -8.25,19.625 -8.125,7.125 -21.625,7.125 -13.5,0 -21.875,-8.25 -8.25,-8.25 -8.25,-22.25 h 17.25 q 0,7.375 3.375,11 3.5,3.5 9.5,3.5 5.75,0 9.125,-2.625 3.5,-2.75 3.5,-8 z"
           style="font-weight:bold;-inkscape-font-specification:'KorolevLiU Bold';fill-opacity:1.0;fill:url(#linearGradient974)"
           id="path2814" /><path
           d="m 1258.7112,217.5202 h -18.375 v 71.5 h -17.25 v -71.5 h -18.375 v -16.625 h 54 z"
           style="font-weight:bold;-inkscape-font-specification:'KorolevLiU Bold';fill-opacity:1.0;fill:url(#linearGradient974)"
           id="path2816" /><path
           d="m 1340.961,289.0202 -4.625,-17.375 h -25.625 l -4.875,17.375 h -17.5 l 25.875,-88.125 h 18.875 l 25.5,88.125 z m -26.625,-32.25 h 18.375 l -9,-34.5 z"
           style="font-weight:bold;-inkscape-font-specification:'KorolevLiU Bold';fill-opacity:1.0;fill:url(#linearGradient974)"
           id="path2818" /><path
           d="m 1405.3358,263.8952 q 0,-3.375 -2.375,-5.75 -2.25,-2.375 -5.875,-3.75 -3.625,-1.5 -8.125,-2.875 -4.5,-1.375 -9,-3.25 -4.375,-2 -8,-4.625 -3.625,-2.75 -6,-7.375 -2.25,-4.75 -2.25,-11.125 0,-12 7.875,-18.875 7.875,-7 21.125,-7 12.875,0 20.75,8 8,8 8,21.5 h -17 q 0,-6.875 -3.25,-10.25 -3.125,-3.5 -8.75,-3.5 -11.5,0 -11.5,10.125 0,4.75 4.25,7.625 4.375,2.875 10.5,4.625 6.125,1.75 12.125,4.125 6.125,2.375 10.375,8 4.375,5.5 4.375,14.25 0,12.375 -8.25,19.625 -8.125,7.125 -21.625,7.125 -13.5,0 -21.875,-8.25 -8.25,-8.25 -8.25,-22.25 h 17.25 q 0,7.375 3.375,11 3.5,3.5 9.5,3.5 5.75,0 9.125,-2.625 3.5,-2.75 3.5,-8 z"
           style="font-weight:bold;-inkscape-font-specification:'KorolevLiU Bold';fill-opacity:1.0;fill:url(#linearGradient974)"
           id="path2820" /><path
           d="m 1452.8357,289.0202 h -17.25 v -88.125 h 17.25 z"
           style="font-weight:bold;-inkscape-font-specification:'KorolevLiU Bold';fill-opacity:1.0;fill:url(#linearGradient974)"
           id="path2822" /><path
           d="m 1514.9605,289.0202 -4.625,-17.375 h -25.625 l -4.875,17.375 h -17.5 l 25.875,-88.125 h 18.875 l 25.5,88.125 z m -26.625,-32.25 h 18.375 l -9,-34.5 z"
           style="font-weight:bold;-inkscape-font-specification:'KorolevLiU Bold';fill-opacity:1.0;fill:url(#linearGradient974)"
           id="path2824" /><path
           d="m 1600.5853,289.0202 h -16.25 l -26,-51 v 51 h -17.25 v -88.125 h 16.25 l 25.875,51.25 v -51 h 17.375 z"
           style="font-weight:bold;-inkscape-font-specification:'KorolevLiU Bold';fill-opacity:1.0;fill:url(#linearGradient974)"
           id="path2826" /></g><g
         aria-label="ASSOCIATION "
         id="text242"
         style="font-weight:300;font-size:74.4957px;font-family:KorolevLiU;-inkscape-font-specification:'KorolevLiU Light';text-align:center;text-anchor:middle;opacity:1;fill:url(#linearGradient974);stroke:#000000;stroke-width:14.4833;fill-opacity:1.0"><path
           d="m 651.07861,169.73579 -3.57579,-11.84481 h -19.51787 l -3.65029,11.84481 h -7.59856 l 17.05951,-52.51946 h 8.19453 l 16.76153,52.51946 z m -21.23127,-18.17695 h 15.86758 l -7.82204,-26.29698 z"
           style="font-weight:500;-inkscape-font-specification:'KorolevLiU Medium';stroke:none;fill-opacity:1.0;fill:url(#linearGradient974)"
           id="path2787" /><path
           d="m 689.36926,155.28363 q 0,-2.90533 -2.01139,-4.84222 -2.01138,-1.93689 -4.99121,-2.68185 -2.97982,-0.81945 -6.55562,-2.01138 -3.5013,-1.19193 -6.48112,-2.53285 -2.97983,-1.34093 -4.99122,-4.46975 -2.01138,-3.12882 -2.01138,-7.67305 0,-7.07709 4.32075,-10.95087 4.39525,-3.87378 12.2173,-3.87378 7.97103,0 12.58977,4.69323 4.61873,4.69323 4.61873,13.11125 h -7.22608 q 0,-5.36369 -2.68185,-8.19453 -2.60735,-2.83084 -7.30057,-2.83084 -4.46975,0 -6.9281,2.08588 -2.38387,2.08588 -2.38387,5.95966 0,2.30936 1.11744,3.94827 1.19193,1.6389 3.05432,2.53285 1.93689,0.89395 4.39525,1.7134 2.45836,0.81946 4.99121,1.41542 2.53285,0.59597 4.99121,1.7879 2.45836,1.11743 4.32075,2.60735 1.93689,1.41542 3.05433,4.02277 1.19193,2.53285 1.19193,6.03415 0,7.30058 -4.69323,11.32334 -4.61874,4.02277 -12.73877,4.02277 -8.19452,0 -12.96225,-4.76772 -4.69323,-4.84222 -4.69323,-13.55822 h 7.22609 q 0,5.73617 2.75634,8.567 2.83083,2.83084 7.67305,2.83084 4.54424,0 7.30058,-2.08588 2.83084,-2.16037 2.83084,-6.18314 z"
           style="font-weight:500;-inkscape-font-specification:'KorolevLiU Medium';stroke:none;fill-opacity:1.0;fill:url(#linearGradient974)"
           id="path2789" /><path
           d="m 731.53382,155.28363 q 0,-2.90533 -2.01139,-4.84222 -2.01138,-1.93689 -4.99121,-2.68185 -2.97983,-0.81945 -6.55562,-2.01138 -3.5013,-1.19193 -6.48113,-2.53285 -2.97982,-1.34093 -4.99121,-4.46975 -2.01138,-3.12882 -2.01138,-7.67305 0,-7.07709 4.32075,-10.95087 4.39525,-3.87378 12.21729,-3.87378 7.97104,0 12.58978,4.69323 4.61873,4.69323 4.61873,13.11125 h -7.22608 q 0,-5.36369 -2.68185,-8.19453 -2.60735,-2.83084 -7.30058,-2.83084 -4.46974,0 -6.9281,2.08588 -2.38386,2.08588 -2.38386,5.95966 0,2.30936 1.11744,3.94827 1.19193,1.6389 3.05432,2.53285 1.93689,0.89395 4.39525,1.7134 2.45835,0.81946 4.99121,1.41542 2.53285,0.59597 4.99121,1.7879 2.45836,1.11743 4.32075,2.60735 1.93689,1.41542 3.05432,4.02277 1.19194,2.53285 1.19194,6.03415 0,7.30058 -4.69323,11.32334 -4.61874,4.02277 -12.73877,4.02277 -8.19452,0 -12.96225,-4.76772 -4.69323,-4.84222 -4.69323,-13.55822 h 7.22608 q 0,5.73617 2.75635,8.567 2.83083,2.83084 7.67305,2.83084 4.54424,0 7.30058,-2.08588 2.83084,-2.16037 2.83084,-6.18314 z"
           style="font-weight:500;-inkscape-font-specification:'KorolevLiU Medium';stroke:none;fill-opacity:1.0;fill:url(#linearGradient974)"
           id="path2791" /><path
           d="m 776.67821,165.34055 q -4.91672,5.06571 -12.66427,5.06571 -7.74755,0 -12.66427,-5.06571 -4.84222,-5.06571 -4.84222,-13.11124 v -17.65548 q 0,-8.04554 4.84222,-13.11125 4.91672,-5.1402 12.66427,-5.1402 7.74755,0 12.66427,5.1402 4.91672,5.06571 4.91672,13.11125 v 17.65548 q 0,8.04553 -4.91672,13.11124 z m -12.66427,-1.93689 q 4.24626,0 7.22609,-2.75634 2.97982,-2.75634 2.97982,-8.12003 v -18.25145 q 0,-5.2147 -2.90533,-8.04553 -2.83084,-2.90534 -7.30058,-2.90534 -4.24625,0 -7.22608,2.75635 -2.97983,2.75634 -2.97983,8.12003 v 18.25144 q 0,5.2147 2.83084,8.12003 2.90533,2.83084 7.37507,2.83084 z"
           style="font-weight:500;-inkscape-font-specification:'KorolevLiU Medium';stroke:none;fill-opacity:1.0;fill:url(#linearGradient974)"
           id="path2793" /><path
           d="m 824.87688,150.6649 q 0,8.79049 -4.69323,14.30317 -4.69323,5.51268 -12.88776,5.51268 -7.74755,0 -12.66426,-5.06571 -4.84222,-5.1402 -4.84222,-13.18573 v -17.80448 q 0,-8.04553 4.84222,-13.11124 4.91671,-5.06571 12.66426,-5.06571 8.04554,0 12.81326,5.43819 4.76773,5.43819 4.76773,13.93069 h -7.30058 q -0.14899,-5.28919 -2.68184,-8.79049 -2.53286,-3.5013 -7.59857,-3.5013 -4.24625,0 -7.22608,2.75635 -2.97983,2.75634 -2.97983,8.12003 v 18.25144 q 0,5.2147 2.83084,8.12003 2.90533,2.83084 7.37507,2.83084 3.72479,0 6.10865,-2.01138 2.45836,-2.08588 3.27781,-4.76773 0.89395,-2.68184 0.89395,-5.95965 z"
           style="font-weight:500;-inkscape-font-specification:'KorolevLiU Medium';stroke:none;fill-opacity:1.0;fill:url(#linearGradient974)"
           id="path2795" /><path
           d="m 841.11687,117.21633 v 52.51946 h -7.30058 v -52.51946 z"
           style="font-weight:500;-inkscape-font-specification:'KorolevLiU Medium';stroke:none;fill-opacity:1.0;fill:url(#linearGradient974)"
           id="path2797" /><path
           d="m 881.86597,169.73579 -3.5758,-11.84481 H 858.7723 l -3.65029,11.84481 h -7.59856 l 17.05952,-52.51946 h 8.19452 l 16.76153,52.51946 z m -21.23128,-18.17695 h 15.86759 l -7.82205,-26.29698 z"
           style="font-weight:500;-inkscape-font-specification:'KorolevLiU Medium';stroke:none;fill-opacity:1.0;fill:url(#linearGradient974)"
           id="path2799" /><path
           d="m 901.16021,169.73579 v -45.44237 h -12.66427 v -7.07709 h 32.70361 v 7.07709 h -12.73877 v 45.44237 z"
           style="font-weight:500;-inkscape-font-specification:'KorolevLiU Medium';stroke:none;fill-opacity:1.0;fill:url(#linearGradient974)"
           id="path2801" /><path
           d="m 936.3221,117.21633 v 52.51946 h -7.30058 v -52.51946 z"
           style="font-weight:500;-inkscape-font-specification:'KorolevLiU Medium';stroke:none;fill-opacity:1.0;fill:url(#linearGradient974)"
           id="path2803" /><path
           d="m 976.17722,165.34055 q -4.91672,5.06571 -12.66427,5.06571 -7.74755,0 -12.66427,-5.06571 -4.84222,-5.06571 -4.84222,-13.11124 v -17.65548 q 0,-8.04554 4.84222,-13.11125 4.91672,-5.1402 12.66427,-5.1402 7.74755,0 12.66427,5.1402 4.91672,5.06571 4.91672,13.11125 v 17.65548 q 0,8.04553 -4.91672,13.11124 z m -12.66427,-1.93689 q 4.24626,0 7.22608,-2.75634 2.97983,-2.75634 2.97983,-8.12003 v -18.25145 q 0,-5.2147 -2.90533,-8.04553 -2.83084,-2.90534 -7.30058,-2.90534 -4.24625,0 -7.22608,2.75635 -2.97983,2.75634 -2.97983,8.12003 v 18.25144 q 0,5.2147 2.83084,8.12003 2.90533,2.83084 7.37507,2.83084 z"
           style="font-weight:500;-inkscape-font-specification:'KorolevLiU Medium';stroke:none;fill-opacity:1.0;fill:url(#linearGradient974)"
           id="path2805" /><path
           d="m 1019.2357,169.73579 -21.15679,-37.69482 v 37.69482 h -7.30058 v -52.51946 h 6.77911 l 21.15676,37.84381 v -37.84381 h 7.3751 v 52.51946 z"
           style="font-weight:500;-inkscape-font-specification:'KorolevLiU Medium';stroke:none;fill-opacity:1.0;fill:url(#linearGradient974)"
           id="path2807" /></g><g
         aria-label="林雪平大学東亞協会 "
         id="text242-6"
         style="font-weight:300;font-size:78.6604px;font-family:KorolevLiU;-inkscape-font-specification:'KorolevLiU Light';text-align:center;text-anchor:middle;fill:url(#linearGradient974);stroke:url(#linearGradient2028);stroke-width:1.06297;fill-opacity:1.0"><path
           d="m 285.86697,37.06066 0.96021,-0.03841 q 0.30727,0 4.91628,3.84084 -0.96021,3.456756 -1.30589,9.448466 l 0.34568,-0.03841 q 1.34429,-0.03841 6.22216,-2.227687 0.88339,-0.03841 3.91765,1.536336 0,1.497927 -1.61315,3.379939 -0.53772,0.03841 -3.95606,-0.153634 -4.1097,0.460901 -4.91628,0.499309 v 1.68997 q 7.2976,9.909367 16.74606,14.787233 v 0.998619 q -7.60486,4.30174 -8.21939,4.340149 -4.5706,-2.496546 -7.52805,-12.444321 -0.99862,-3.072672 -0.99862,-3.994474 h -0.30727 v 0.691351 q 0.30727,18.090356 0.30727,27.11633 -3.14949,2.458137 -3.91766,2.496546 -1.92042,0.07682 -6.26056,-5.453993 3.30312,-0.806576 3.30312,-1.459519 V 54.574889 q -5.83808,1.229069 -7.56646,1.958829 -2.34291,-1.229069 -2.91904,-1.190661 v -0.691351 q 1.19066,-0.03841 10.4855,-2.074053 V 39.173122 q 0,-0.422493 2.3045,-2.112462 z m -28.23017,1.766786 q 2.45814,-0.115225 7.56645,2.381321 -0.34567,6.721469 -0.34567,10.063 v 0.691351 q 2.11246,-0.07682 4.26333,-2.189278 5.56922,0.921801 5.56922,2.458137 -0.4609,1.68997 -2.30451,1.766786 l -2.26609,0.115226 q -0.76817,0 -1.30589,-0.307268 -0.57612,0.345676 -1.34429,0.384084 l -2.61177,0.115226 v 0.652942 q 0,2.074054 6.8751,6.106936 2.3045,2.342912 2.3045,3.956065 v 0.307267 q -0.57612,4.378557 -3.61038,4.493783 -1.11385,-1.075435 -5.22355,-7.835314 v 13.058856 q 0,13.750207 -2.95744,13.865432 l -3.30313,0.115225 q -2.91903,-2.342912 -2.91903,-4.916275 v -0.307267 q 2.61177,-0.115225 2.61177,-3.456756 V 67.941012 q -8.14258,9.064382 -15.40177,11.330478 h -0.34568 q 11.21526,-13.058856 12.79,-20.586902 l -0.34568,-2.342912 h 0.34568 l 2.95745,2.534954 v -0.998618 l -0.34568,-2.342913 -0.65294,0.03841 q -0.88339,0.03841 -4.91628,1.536336 -0.57612,0.03841 -4.5706,-1.152252 v -0.691351 q 8.44985,-1.651562 10.13982,-1.728378 v -12.71318 l -1.30588,-1.651561 z m 19.70351,18.013539 q 5.56921,1.037027 5.56921,4.148107 v 0.652943 q -1.80519,8.488256 -13.44293,18.628073 v -0.345675 q 8.18098,-16.09312 8.18098,-20.740536 v -0.691351 l -0.99861,-1.305885 z"
           style="font-weight:normal;font-family:HanyiSentyTang;-inkscape-font-specification:HanyiSentyTang;letter-spacing:20.7281px;fill-opacity:1.0;fill:url(#linearGradient974)"
           id="path2768" /><path
           d="m 369.8153,31.414625 q 3.84084,0.499309 3.84084,2.381321 0,0.384084 -1.68997,2.534954 l -4.26333,-0.268859 -0.8834,0.03841 q -9.02597,0.307267 -17.51423,3.533572 -4.68582,-1.075435 -5.10831,-1.075435 v -0.806576 q 10.25504,-1.613153 25.6184,-6.337386 z m -11.10003,6.222161 q 5.10832,1.574744 5.10832,2.688588 -0.42249,1.305885 -0.42249,3.34153 4.03288,-0.153633 21.39347,-3.687206 5.53081,-0.192042 9.37165,8.795523 v 0.806577 q 0,1.92042 -5.9533,2.688588 -11.56093,-1.152252 -11.56093,-2.458138 8.52667,-2.611771 9.41006,-4.493783 -1.65156,-0.768168 -4.68582,-0.652942 -10.44709,0.384084 -18.82012,1.92042 v 8.296214 q 0,0.384084 0.42249,0.384084 0,0.422492 -0.42249,0.422492 l 0.42249,4.954683 v 3.725615 q -1.92042,2.995855 -3.84084,3.879248 h -0.84498 q -2.03565,-1.19066 -3.41835,-3.994473 0.84499,-0.883393 1.26748,-7.067145 -4.1097,3.725614 -9.83255,8.219397 h -0.42249 q -1.38271,0.03841 -2.57337,-4.032882 l 12.82841,-5.0315 -0.42249,-0.806577 V 48.08387 q -9.37165,2.419729 -10.67754,2.458138 -1.3827,-0.768168 -2.15087,-0.768168 v 0.422492 q 0.84499,3.072672 0.84499,5.76126 v 0.844985 q -0.92181,6.22216 -5.10832,6.375794 l -0.42249,0.03841 q -2.57337,-1.689969 -2.57337,-3.648798 2.99586,-7.950538 3.84084,-12.559546 -0.42249,-0.691351 -0.42249,-1.613153 0.11523,-0.844985 0.84499,-0.883393 2.15087,2.419729 2.15087,3.648798 l 13.67339,-2.573363 v -6.183752 q 0.69135,-1.68997 2.99585,-1.766786 z m 10.25504,8.718706 h 0.4225 q 3.91765,1.459519 4.68582,3.11108 v 0.422493 q -4.72423,5.146725 -10.67753,5.377176 h -0.4225 q 5.99171,-5.108317 5.99171,-7.68168 z m -20.51008,4.455374 q 6.83669,2.419729 6.83669,3.495165 -1.72837,2.15087 -1.72837,2.534954 -7.68168,-1.152252 -7.68168,-5.108317 1.42111,-0.844985 2.57336,-0.921802 z m 18.35921,4.724233 q 8.56508,-0.307267 8.56508,4.647417 v 1.651561 q 0,0.844985 -0.84499,0.883393 l -1.72838,0.03841 -8.98756,-6.260569 v -0.422492 z m 8.14258,8.41144 q 0.69135,-0.03841 6.41421,5.146725 -3.41835,5.646035 -3.41835,22.468913 -3.07267,2.995855 -5.14673,3.072672 l -1.26747,0.03841 q -3.41835,-2.227688 -3.41835,-4.839459 -10.37027,0.806577 -18.82012,1.92042 -2.15087,-1.152252 -2.99585,-1.113843 v -0.844985 l 1.72838,-0.03841 q 21.35507,-2.65018 21.35507,-5.338768 v -4.570599 l -0.84499,0.03841 q -10.94639,0.384084 -17.09174,1.882012 -2.15087,-1.190661 -2.99585,-1.152252 v -0.806577 q 9.41006,-0.345675 21.35507,-4.916275 0,-0.537717 0.42249,-4.148107 -7.95054,0.268859 -20.93258,1.997237 -2.15087,-1.19066 -2.99585,-1.152252 v -0.806576 l 0.84498,-0.03841 q 25.23432,-2.842221 25.23432,-5.876485 1.3827,-0.883393 2.57336,-0.921801 z"
           style="font-weight:normal;font-family:HanyiSentyTang;-inkscape-font-specification:HanyiSentyTang;letter-spacing:20.7281px;fill-opacity:1.0;fill:url(#linearGradient974)"
           id="path2770" /><path
           d="m 468.78131,35.985224 q 2.53495,0.72976 4.41696,3.495165 v 0.345675 q 0,1.075436 -1.45951,1.113844 -3.34154,-0.652943 -4.80105,-0.614534 l -1.84361,0.03841 q -10.5239,0.192042 -28.8063,5.569218 -3.14949,-1.728378 -3.6872,-1.728378 v -0.691351 z m -5.53081,6.183753 h 1.07543 q 6.29898,0.844984 6.29898,3.418347 0,4.532191 -11.4457,12.751588 h -0.38408 v -0.345675 q 5.18513,-7.412821 5.18513,-14.748825 -0.72976,0 -0.72976,-0.72976 z m -12.55955,0.614534 q 3.84084,0.614534 6.64466,3.456756 -0.38409,4.80105 -0.38409,7.143962 v 6.798287 l 24.38934,-4.071291 q 3.2263,1.267478 3.30312,2.074054 v 0.729759 q 0,2.304504 -2.22769,3.264714 -2.7654,-0.691351 -5.14673,-0.614534 l -2.61177,0.03841 q -10.29345,0.192042 -17.70627,1.421111 v 17.168554 q 0,13.596573 -5.91489,13.711799 -1.8436,-4.301741 -1.8436,-8.219398 V 64.253806 h -0.34568 q -8.94916,1.267477 -18.85852,3.956065 -3.41835,-1.728378 -4.41697,-1.68997 v -0.729759 q 4.76264,-1.152252 23.62117,-4.378558 -0.34568,-9.064382 -0.34568,-13.250897 v -2.842222 q 0,-1.997236 1.8436,-2.534954 z m -10.33186,4.148107 q 4.83946,-0.115225 5.53081,12.405913 l -0.76816,0.345675 -2.57337,0.07682 q -3.30312,-2.419729 -3.30312,-7.105554 v -2.15087 q 0,-1.728378 1.11384,-3.571981 z"
           style="font-weight:normal;font-family:HanyiSentyTang;-inkscape-font-specification:HanyiSentyTang;letter-spacing:20.7281px;fill-opacity:1.0;fill:url(#linearGradient974)"
           id="path2772" /><path
           d="m 542.82027,64.445848 v 0 q 1.92042,2.419729 11.9066,8.987565 10.02459,6.529428 23.04504,12.559546 -1.26748,0.192042 -3.30312,0.998619 -1.99724,0.806576 -4.14811,1.766786 -3.03426,1.382703 -4.72423,1.92042 -6.45261,-2.227687 -11.36889,-6.836695 -4.91627,-4.647416 -8.10417,-9.448466 -3.1879,-4.839458 -4.41696,-7.643271 -2.15088,8.949157 -5.454,14.326332 -3.30312,5.377176 -6.72147,8.065764 -3.41834,2.726996 -5.91489,3.648798 -2.49655,0.921802 -3.03426,0.96021 -0.0384,0 -0.0768,0 3.49516,-2.035645 6.64465,-6.913512 3.14949,-4.916275 5.56922,-11.330477 2.45814,-6.452611 3.84084,-13.212489 0,0 -0.0384,0 0,0 -0.0384,0 -2.95744,0.614534 -4.64741,0.921801 -1.8052,0.307267 -2.80382,0.576126 -0.99861,0.23045 -1.88201,0.691351 l -5.53081,-2.957446 q 4.14811,-0.268859 8.06577,-0.998619 3.95606,-0.768168 7.52804,-1.728378 1.07544,-6.683061 0.65295,-12.021829 -0.38409,-5.377175 -2.61178,-8.14258 -0.11522,-0.153634 -0.0768,-0.537718 0.0384,-0.422492 0.15363,-0.883393 0.15363,-0.460901 0.26886,-0.844985 0.11523,-0.345675 0.15363,-0.499309 0.0384,-0.192042 0.0384,-0.307267 0,-0.115225 0,-0.192042 0,-0.07682 0,-0.192042 0.0384,-0.115225 0.11523,-0.422492 0.26886,0.07682 0.61453,0.153633 1.92042,0.268859 4.14811,1.459519 2.26609,1.152252 3.07267,4.532192 0.30727,9.141198 -0.49931,16.323569 2.30451,-0.614534 4.22492,-0.998618 2.80382,-0.576126 4.22493,-1.113844 1.42111,-0.576126 2.15087,-0.998618 0.4609,-0.268859 0.88339,-0.422493 0.4609,-0.192042 1.03703,-0.268859 0.76817,-0.07682 1.80519,0.230451 1.03703,0.307267 2.07406,0.768168 1.03702,0.460901 1.72838,0.844985 0.69135,0.345675 0.69135,0.345675 0.0768,0.230451 0.0384,0.768168 0,0.499309 -0.0384,0.883393 0,0.192042 0,0.268859 0,0.07682 -0.15364,0.384084 -0.11522,0.307267 -0.26886,0.614534 -0.15363,0.307268 -0.26885,0.460901 -0.26886,0.307267 -0.46091,0.614535 -0.26885,0.422492 -0.65294,0.729759 -0.38408,0.307267 -1.26748,0.345676 -0.88339,0.03841 -2.61177,-0.307267 -1.88201,-0.345676 -5.79966,0 -3.87925,0.307267 -7.83532,0.883393 -0.19204,1.305885 -0.42249,2.573362 0.26886,0.307268 0.49931,0.614535 z"
           style="font-weight:normal;font-family:HanyiSentyTang;-inkscape-font-specification:HanyiSentyTang;letter-spacing:20.7281px;fill-opacity:1.0;fill:url(#linearGradient974)"
           id="path2774" /><path
           d="m 653.11676,43.897355 q 7.75849,-0.307268 10.10141,9.794141 -2.18928,2.304504 -5.41559,2.458138 -2.53495,0.07682 -10.90798,-1.882012 v -0.768168 q 3.2263,-0.768168 8.18099,-4.032882 v -0.768168 l -4.68583,-0.576126 q -13.09726,0.460901 -34.95164,5.799669 l -2.727,-0.652943 v 0.345675 q 0.76817,3.533573 0.76817,5.646035 v 0.345676 q 0,7.143962 -4.64742,7.336004 l -0.76816,0.03841 q -0.72976,0 -2.34292,-2.573363 v -1.497927 q 3.87925,-9.717325 3.87925,-14.825642 h 0.38409 q 1.34429,2.688588 2.34291,4.07129 9.06438,-2.611771 40.78972,-8.257805 z m -15.13291,9.563691 3.49516,-0.115225 q 3.91766,-0.153634 4.26333,2.112462 -1.88201,4.493782 -10.1014,10.869576 0.53771,0 1.15225,1.113844 v 3.379939 l 0.38408,-0.03841 q 15.5554,-1.68997 15.5554,-3.917657 l 0.76817,-0.03841 q 3.49517,1.997236 4.30174,3.226305 -0.9218,2.266096 -1.57474,2.304504 l -4.64742,0.192042 q -4.53219,0.153634 -14.40315,0.883393 0.80658,8.027355 0.80658,12.367505 -0.76817,8.296214 -4.68583,8.449847 l -3.11108,0.115225 q -2.22768,0.07682 -3.49516,-2.496546 v -1.497927 q 3.49516,-0.153634 3.49516,-5.415584 0.38409,-1.613153 0.38409,-5.646035 l -0.38409,-5.26195 q -15.90107,1.882011 -15.90107,3.610389 h -0.4225 q -1.11384,-0.422492 -3.87924,-3.994473 l 0.80657,-0.422493 q 1.68997,-0.03841 19.01216,-1.421111 v -2.650179 l -1.92042,0.07682 1.53634,-1.92042 -1.15226,-1.459519 v -0.384084 l 4.64742,-0.192042 q 5.06991,-6.951921 5.06991,-8.833932 l -0.42249,0.03841 q -11.48412,3.418348 -14.74883,5.415585 -1.03703,0.03841 -3.87925,-3.226306 19.05057,-3.149489 19.05057,-5.223542 z M 612.6343,39.787656 q 3.49517,0.192042 6.10694,1.497927 2.61177,1.267478 3.49516,3.187898 0.8834,1.882011 -0.80657,3.879248 -2.30451,0.422492 -3.41835,-0.460901 -1.11384,-0.921802 -1.80519,-2.266095 -0.11523,-0.153634 -0.23045,-0.345676 -0.4225,-0.691351 -0.84499,-1.651561 -0.9218,-2.227687 -2.49655,-3.84084 z m 35.643,-2.304504 q -1.88201,1.805195 -6.06853,4.109699 -2.49654,1.42111 -5.18513,3.149488 -2.65018,1.728378 -4.95469,3.802432 1.61316,-1.843603 4.07129,-5.415584 2.45814,-3.61039 3.84084,-6.990329 0.38409,-1.19066 -0.15363,-1.843603 -0.49931,-0.691351 -1.03703,-0.96021 0.65295,-0.192042 1.26748,-0.614534 0.72976,-0.49931 1.72838,-0.768168 1.03703,-0.307268 2.68859,0.268858 0.26886,0.07682 1.11384,0.614535 0.88339,0.499309 1.76679,1.382702 0.9218,0.883393 1.30588,2.035645 0.11523,0.652943 -0.38408,1.229069 z m -25.6184,-3.533573 q 3.49516,0.230451 6.10693,1.766787 2.61177,1.497927 3.49517,3.764023 0.88339,2.227687 -0.80658,4.647416 -2.3045,0.499309 -3.41835,-0.576126 -1.11384,-1.075435 -1.80519,-2.650179 -0.11523,-0.230451 -0.23045,-0.460901 -0.42249,-0.806577 -0.84499,-1.958829 -0.9218,-2.650179 -2.49654,-4.532191 z"
           style="font-weight:normal;font-family:HanyiSentyTang;-inkscape-font-specification:HanyiSentyTang;letter-spacing:20.7281px;fill-opacity:1.0;fill:url(#linearGradient974)"
           id="path2776" /><path
           d="m 721.93214,69.592573 v 0 q 2.61178,2.074054 10.60072,6.222161 7.98895,4.109699 17.32219,6.990328 -2.727,0.72976 -4.76264,1.766787 -2.03565,1.037027 -3.41835,1.882011 -1.26748,0.806577 -2.03564,1.113844 -3.99448,-1.037027 -7.45123,-3.687206 -3.41835,-2.688588 -6.06853,-5.799669 -2.65018,-3.149488 -4.18652,-5.569217 0.0384,6.721469 -0.19204,11.522519 -0.23045,4.80105 -0.84498,6.183752 -0.0384,0.07682 -0.11523,0.460901 -0.30726,1.113844 -1.07543,2.995855 -0.76817,1.92042 -1.95883,2.765405 -0.53772,0.192042 -0.88339,-0.268859 -0.34568,-0.460901 -0.65295,-1.19066 -0.42249,-1.075435 -1.15225,-1.882012 -1.07543,-0.998618 -2.45814,-1.92042 -1.3827,-0.921801 -2.45813,-1.536336 -0.8834,-0.537717 -1.22907,-0.768168 0.26886,-0.03841 0.65294,-0.03841 1.07544,-0.07682 2.57336,-0.23045 1.49793,-0.115226 2.727,-0.345676 1.22907,-0.23045 1.45952,-0.576126 0.4609,-1.037027 0.57612,-6.875103 0.15364,-5.876485 0.11523,-13.980657 -2.18928,0.537717 -3.87925,1.305885 0.26886,0 0.49931,0.03841 0.69135,0.07682 1.19066,0.115225 0.53772,0 0.57613,-0.07682 0.34567,0 0.69135,0.268859 0.38408,0.23045 0.49931,0.691351 0.15363,0.422492 -0.23045,0.998618 -0.8834,2.227687 -3.99448,6.183752 -3.07267,3.917657 -6.8751,7.297596 -3.76402,3.379939 -6.68306,3.917657 0.42249,-0.384084 2.45814,-2.573363 2.03564,-2.227687 4.609,-5.223542 2.57337,-3.034264 4.60901,-5.838077 2.03565,-2.803813 2.45814,-4.416966 0,-0.07682 -0.15363,-0.307267 -0.15364,-0.268858 -0.34568,-0.537717 -0.0768,-0.07682 -0.11523,-0.153634 -0.99861,0.499309 -1.68996,0.883393 -0.49931,0.268859 -0.80658,0.422493 l -4.99309,-1.68997 q 1.3827,-0.07682 2.91904,-0.345675 -0.15364,-0.115226 -0.34568,-0.153634 v 0 q 0.0768,0.03841 0.19204,0.03841 0.11523,0 0.30727,0.03841 -0.19204,-0.03841 -0.38409,-0.03841 -0.0768,-0.03841 -0.19204,-0.03841 -0.11522,-0.07682 -0.23045,-0.576126 -0.11522,-0.499309 -0.19204,-1.075435 -0.0768,-0.614535 -0.0384,-0.96021 -0.0768,-0.384084 -0.88339,-2.381321 -0.80658,-2.035645 -1.88201,-4.570599 -1.03703,-2.573363 -1.88201,-4.493783 -0.80658,-1.958828 -0.96021,-2.189279 -0.15364,-0.23045 0.23045,-0.384084 0.42249,-0.192042 1.11384,-0.153633 0.76817,0.07682 1.65156,0.268859 4.99309,-0.537718 12.52114,-2.035646 -0.0768,-3.879248 -0.15363,-6.990328 -0.38409,0.115225 -0.72976,0.192042 -2.38133,0.537717 -3.37994,0.96021 -0.96021,0.422492 -1.49793,0.806576 -0.26886,0.153634 -0.53772,0.345676 l -4.64741,-4.186516 q 6.75987,-0.384084 10.71594,-1.19066 -0.11523,-4.455374 -0.15364,-4.685825 -0.0768,-0.115225 -0.65294,-0.691351 -0.57612,-0.576126 -1.34429,-1.305885 -0.76817,-0.768168 -1.3827,-1.344294 -0.57613,-0.576126 -0.69136,-0.691352 0.11523,0 0.26886,0 0.26886,0 0.96021,-0.115225 0.72976,-0.115225 1.57475,-0.307267 0.84498,-0.153633 1.53633,-0.268859 0.72976,-0.153633 1.03703,-0.115225 0.61453,0.07682 1.19066,0.499309 0.57613,0.384084 1.15225,0.921802 0.9218,0.921801 1.76679,1.267477 -0.30727,0.499309 -0.30727,5.684443 1.3827,-0.537718 1.95883,-0.96021 0.30727,-0.192042 0.57613,-0.307267 0.26885,-0.153634 0.61453,-0.192042 0.49931,-0.03841 1.15225,0.192042 0.65295,0.23045 1.26748,0.614534 0.65294,0.345676 1.07543,0.614535 0.4225,0.268858 0.4225,0.268858 0.0768,0.192042 0.0384,0.576126 0,0.384084 0,0.652943 -0.0384,0.153634 -0.0384,0.192042 0,0.07682 -0.0768,0.307267 -0.0768,0.230451 -0.19204,0.460901 -0.0768,0.230451 -0.11523,0.345676 -0.19204,0.23045 -0.30726,0.422492 -0.15364,0.345676 -0.4225,0.576126 -0.23045,0.23045 -0.80657,0.268859 -0.53772,0 -1.61316,-0.307267 -1.3827,-0.307268 -3.49516,-0.153634 0.0384,3.034264 0.0768,6.606245 6.06852,-1.305886 8.2578,-2.035645 0.0768,-0.03841 0.0768,-0.03841 0.49931,-0.23045 0.84498,-0.460901 0.46091,-0.422492 1.07544,-0.4609 2.88063,0.115225 4.87787,2.074053 2.03564,1.958828 1.99723,3.648798 -3.80243,6.529428 -4.76264,10.600718 0,0 -0.30727,0.192042 -0.26885,0.153634 -0.72976,0.422492 -0.4609,0.268859 -0.96021,0.537718 -0.11522,0.115225 -0.26885,0.192042 0.4609,0.192042 0.72976,0.345676 0.26885,0.153633 0.26885,0.153633 0.0384,0.115225 0.0384,0.422492 0,0.307268 -0.0384,0.537718 0,0.115225 0,0.153634 0,0.07682 -0.0768,0.268858 -0.0768,0.153634 -0.19204,0.345676 -0.0768,0.192042 -0.11523,0.268859 -0.19204,0.192042 -0.30727,0.345675 -0.15363,0.268859 -0.38408,0.460901 -0.23045,0.153634 -0.76817,0.192042 -0.49931,0 -1.53633,-0.23045 -1.03703,-0.153634 -3.14949,-0.07682 -2.07406,0.03841 -4.30174,0.268859 0.0384,1.728378 0.0384,3.418347 z m 7.25919,-19.857142 v 0 q -4.30174,0.652943 -7.52804,1.152252 0.0384,0.537718 0.0384,1.075435 0.0384,1.843603 0.0768,3.764023 0.84499,-0.268858 1.30589,-0.537717 0.4609,-0.268859 0.72976,-0.460901 0.23045,-0.153634 0.42249,-0.268859 0.19204,-0.115225 0.42249,-0.153633 0.34568,-0.03841 0.80658,0.153633 0.4609,0.192042 0.88339,0.460901 0.4609,0.268859 0.72976,0.499309 0.30727,0.192042 0.30727,0.192042 0.0768,0.153634 0.0384,0.460901 0,0.268859 0,0.499309 -0.0384,0.115225 -0.0384,0.153634 0,0.03841 -0.0384,0.23045 -0.0384,0.192042 -0.11523,0.384084 -0.0768,0.153634 -0.11522,0.230451 -0.11523,0.192042 -0.19204,0.345675 -0.11523,0.268859 -0.30727,0.460901 -0.15363,0.153633 -0.53772,0.192042 -0.38408,0 -1.15225,-0.230451 -0.99862,-0.192042 -3.11108,-0.03841 0.0384,2.88063 0.0768,5.76126 1.22906,-0.345676 2.11246,-0.537718 1.68997,-0.307267 2.53495,-0.614534 0.84499,-0.345676 1.26748,-0.614534 0.19204,-0.07682 0.34567,-0.153634 -0.15363,-0.537718 -0.26885,-0.96021 -0.0768,-0.384084 -0.15364,-0.576126 -0.0768,-0.23045 -0.23045,-0.268859 v 0 q 0.11523,0 0.30727,0.03841 0.0384,0 0.11522,0 -0.15363,0 -0.26885,-0.03841 -0.0768,0 -0.19205,0 -0.26886,-0.115225 -0.53771,-0.192042 0.42249,0 0.65294,-0.115225 0.26886,-0.153634 0.49931,-0.499309 0.0768,-0.268859 0.26886,-1.882012 0.19204,-1.651561 0.42249,-3.802431 0.23045,-2.189279 0.42249,-4.109699 z m -12.3675,1.92042 v 0 q -2.03565,0.307267 -3.14949,0.537718 -2.30451,0.4609 -3.49517,0.921801 -1.19066,0.460901 -1.8436,0.844985 -0.11522,0.07682 -0.23045,0.115225 0.38408,2.112462 1.3827,5.069909 3.84084,-0.691351 7.45123,-1.92042 -0.0384,-2.88063 -0.11522,-5.569218 z m -4.07129,15.017684 v 0 q 2.18928,-0.576126 4.26333,-1.19066 -0.0384,-3.264714 -0.0768,-6.567837 -0.38408,0.07682 -0.65294,0.153634 -2.03565,0.537718 -3.07267,1.037027 -1.03703,0.499309 -1.61315,0.883393 l -1.72838,-0.806576 q 1.42111,4.032881 2.88063,6.491019 z"
           style="font-weight:normal;font-family:HanyiSentyTang;-inkscape-font-specification:HanyiSentyTang;letter-spacing:20.7281px;fill-opacity:1.0;fill:url(#linearGradient974)"
           id="path2778" /><path
           d="m 825.00788,40.325374 q 5.22355,1.344293 5.22355,2.534954 v 0.768168 q 0,2.112462 -1.99724,3.187897 -3.99447,-0.268859 -6.03012,-0.192042 l 1.22907,1.536336 -1.22907,6.606244 h 0.42249 q 2.80382,-0.115225 7.60487,-2.995855 h 0.38408 q 0,0.307268 4.03288,2.957447 -1.72838,12.751588 -2.41973,13.67339 l -0.80657,0.422492 -1.19066,0.03841 -3.22631,-2.227687 -1.19066,0.03841 q -3.99447,0.652943 -3.99447,1.728378 v 7.336004 l 0.38408,0.768168 q 0.42249,0 15.63222,-3.264714 4.41697,1.728378 4.41697,2.534954 v 0.806577 q -0.80658,3.495164 -1.99724,3.533573 -7.60486,-0.883394 -10.83117,-0.768168 -17.51423,0.652942 -38.48522,6.452611 -4.80105,-1.882012 -4.80105,-2.534955 v -0.384084 l 18.43604,-3.379939 q 0,-0.23045 -1.61316,-1.882011 0.4225,-3.994474 0.4225,-6.222161 v -1.19066 l -1.22907,0.03841 q -1.19066,0.03841 -6.41421,2.189279 -1.57474,0.03841 -2.80381,-1.843603 0.80658,-3.917657 0.80658,-7.796905 0,-0.96021 -1.19066,-4.609008 l 2.41973,-0.07682 q 1.72837,-0.07682 3.18789,0.652943 1.11385,-0.03841 5.60763,-1.382702 v -7.758497 l -0.38408,-0.72976 q -5.64604,1.344294 -7.64328,1.421111 0,-0.691351 -3.18789,-1.805195 v -0.806576 h 0.38408 q 9.64051,-0.345676 31.26444,-6.95192 0,-0.384084 0.80657,-0.422492 z m -16.0163,7.566454 v 0.384084 q 0.69135,-0.03841 1.99724,0.691351 -0.80658,1.805195 -0.80658,5.108317 v 3.072672 l 0.80658,1.152252 v 0.384084 q -1.88201,2.381321 -3.99447,2.458138 l -1.22907,0.07682 -2.38132,-1.497927 -0.4225,0.03841 q -0.99862,0.03841 -3.61039,0.883393 v 0.806577 q 0,6.567836 2.03565,6.491019 0.69135,0 3.99447,-1.689969 4.41697,0.998618 5.22354,2.919038 l -0.42249,6.22216 0.42249,2.726997 0.76817,-0.03841 4.83946,-0.576126 v -0.768168 q 0,-4.993091 -0.80658,-11.98342 0.38409,-0.03841 0.38409,-0.422492 3.87925,0.652942 4.41696,0.614534 l 6.41421,-0.998618 v -7.758497 h -0.38409 q -1.61315,0.07682 -6.83669,2.573363 -2.03565,0.07682 -4.41697,-2.919038 v -8.565073 q -1.99723,0.07682 -5.99171,0.614534 z"
           style="font-weight:normal;font-family:HanyiSentyTang;-inkscape-font-specification:HanyiSentyTang;letter-spacing:20.7281px;fill-opacity:1.0;fill:url(#linearGradient974)"
           id="path2780" /><path
           d="m 904.46243,34.756156 h 0.38408 q 3.91766,-0.153634 6.49102,2.496546 -0.38408,2.688588 -0.38408,4.340149 v 0.768168 q 4.60901,-1.728378 5.26195,-1.766787 6.45261,1.113844 6.45261,2.534955 v 0.384084 q -3.22631,3.802431 -3.22631,14.211107 -2.07405,4.609008 -3.64879,5.223542 -3.41835,0.153634 -6.06853,-6.414202 0.42249,-0.03841 0.42249,-0.422493 2.91904,1.075436 3.61039,1.037027 0.42249,-1.152252 2.03565,-14.172699 -5.64604,0.192042 -5.64604,2.957447 0,5.876485 -6.49102,13.558164 -2.95744,2.842222 -8.10417,3.034264 v 0.384084 q 3.22631,-0.115225 6.06853,2.534954 -0.38409,2.112462 -0.38409,3.533573 l 1.19066,-0.03841 q 2.88063,-0.883394 3.26472,-0.921802 6.06852,1.267477 6.06852,2.534954 v 0.384084 q -2.11246,0.07682 -4.45537,13.519757 0,1.920419 -4.45537,5.646034 -3.14949,0.115225 -5.26196,-6.875103 0.38409,-0.03841 0.38409,-0.422493 2.22769,1.113844 3.6488,1.037027 1.34429,-0.03841 3.2263,-13.442939 l -3.2263,0.115225 q -0.84499,0.03841 -3.22631,8.373031 -5.41558,9.218015 -12.98204,9.486874 v 2.342913 q 0,0.768168 -0.80657,0.806576 l -0.38409,0.03841 q -3.30312,-0.192042 -6.8751,-3.687206 0.80658,-2.573363 0.80658,-3.571981 V 54.536481 q -1.07544,0.03841 -6.06853,1.766786 -1.22907,-1.037026 -1.22907,-2.688588 l 7.2976,-1.037026 V 38.443362 q 0.11522,-0.768168 0.80657,-0.806576 h 0.38409 q 2.84222,-0.115226 6.06852,2.534954 -0.80657,5.492401 -0.80657,10.984802 l 0.80657,-0.03841 1.65156,-1.229069 1.19066,-0.03841 q 2.45814,1.267478 2.45814,1.882012 -0.61453,1.574744 -1.22907,1.613153 l -5.26195,0.192042 v 16.05471 q 0,7.259188 0.80658,18.397623 4.41696,-0.153633 9.29483,-13.67339 0,-0.268858 0.42249,-2.342912 h -0.80657 q -1.99724,0.07682 -4.07129,1.344294 -2.80382,-0.844985 -2.80382,-1.459519 v -0.422493 q 1.19066,-0.03841 8.06577,-1.075435 v -6.644653 q -1.19066,0.03841 -1.19066,-0.729759 5.64603,-2.65018 8.10417,-7.374413 2.80381,-7.336004 2.80381,-10.677535 h -0.38408 q -5.53081,1.766787 -6.49102,1.805195 -1.8436,-1.075435 -2.41973,-1.075435 V 44.895973 Q 905.269,44.511889 905.269,41.016725 V 38.25132 q 0,-0.96021 -0.80657,-3.495164 z m 15.40177,24.158882 q 4.18651,0.691352 7.25918,2.458138 -0.80657,3.571981 -0.80657,5.146725 3.6488,-1.344294 4.87786,-1.382702 5.41559,1.152252 6.06853,2.534954 v 0.384084 q -2.41973,0.115226 -4.87787,17.437413 l -3.64879,4.032882 -1.19066,0.03841 q -2.03565,0.07682 -4.45538,-7.259188 0.38409,-0.03841 0.38409,-0.422492 1.49792,0.729759 3.26471,0.691351 l 1.19066,-0.07682 q 1.22907,-5.377176 2.03565,-14.940867 l -1.61316,0.03841 q -3.30312,0.115225 -4.07129,7.604862 -4.72423,12.329096 -12.52114,12.597955 l -0.80657,0.03841 v -0.768168 q 4.72423,-0.192042 8.91075,-16.400387 v -1.19066 q -0.4225,0 -0.4225,-0.384084 -3.14948,0.998618 -4.45537,1.728378 -2.03565,-1.075435 -2.84222,-1.075435 v -1.152252 l 4.07129,-0.153634 q 2.91904,-0.115225 4.45537,-2.112462 l -0.42249,-2.726996 v -3.149489 l -0.80658,-1.152252 q 0.4225,0 0.4225,-0.384084 z"
           style="font-weight:normal;font-family:HanyiSentyTang;-inkscape-font-specification:HanyiSentyTang;letter-spacing:20.7281px;fill-opacity:1.0;fill:url(#linearGradient974)"
           id="path2782" /><path
           d="m 987.87304,35.255465 q 3.34153,-0.153634 5.26195,2.15087 v 4.685825 q 14.21111,12.482729 30.38101,18.512848 1.3059,0.72976 1.9973,0.72976 v 0.768168 q -0.653,0.03841 -10.908,5.108317 -4.2633,-1.344294 -10.9464,-7.835314 0,2.342913 -1.6132,2.381321 -2.0356,0.07682 -6.06849,-0.153634 -5.26195,0.576126 -14.59519,2.88063 -2.80381,-1.459519 -4.03288,-1.42111 -8.48826,9.33324 -14.97928,9.563691 v -0.384084 q 19.31943,-18.551257 24.6966,-32.647139 v -3.533573 q 0.15363,-0.806576 0.80658,-0.806576 z m 3.2263,9.294832 q -2.91904,5.76126 -12.13705,17.28378 l 0.42249,-0.03841 q 17.8215,-2.919038 17.8215,-4.532191 l 1.19066,-0.07682 4.07126,1.037026 z m 14.59516,21.815971 0.3841,-0.03841 q 8.1042,0.576126 8.1042,2.074054 v 1.574744 q -1.4979,2.381321 -4.0329,2.496546 -0.4993,0 -8.1042,-1.689969 l -0.384,0.03841 q -6.1838,0.192042 -11.36893,1.574744 1.65156,1.536336 1.65156,3.84084 -1.3443,3.264714 -6.91351,8.104172 h 0.42249 q 7.02874,-1.459519 11.75297,-3.187897 l 1.99724,0.307267 v -0.384084 q -2.727,-5.684443 -4.45538,-7.259187 v -0.806576 q 13.36616,3.725614 13.36616,11.676153 -0.8066,5.108317 -2.0357,5.146725 l -1.1906,0.07682 q -3.6104,0.115225 -4.8779,-6.491019 h -0.38409 q 0,1.574744 -1.22907,1.613153 l -2.41973,-0.307268 q -8.41144,1.075436 -12.94363,2.842222 -1.22907,-0.345676 -1.22907,-0.768168 l -6.49102,4.186515 h -0.80658 q 10.13982,-13.67339 10.13982,-17.206962 -0.96021,0.03841 -11.33048,2.765404 -4.45537,-1.497927 -4.45537,-2.189278 15.59381,-3.725615 17.399,-4.5706 l 0.80658,0.384084 q 13.40454,-2.458137 18.62804,-3.802431 z"
           style="font-weight:normal;font-family:HanyiSentyTang;-inkscape-font-specification:HanyiSentyTang;letter-spacing:20.7281px;fill-opacity:1.0;fill:url(#linearGradient974)"
           id="path2784" /></g></g><text
       xml:space="preserve"
       transform="matrix(0.40320744,0,0,0.40320744,-218.2094,-105.97534)"
       id="text5790-7"
       style="font-style:normal;font-variant:normal;font-weight:500;font-stretch:normal;font-size:125px;font-family:KorolevLiU;-inkscape-font-specification:'KorolevLiU Medium';text-align:center;letter-spacing:0px;word-spacing:0px;writing-mode:tb-rl;text-orientation:upright;white-space:pre;shape-inside:url(#rect5792-9);display:inline;fill:#000000;fill-opacity:1;stroke:none;stroke-width:24.3024;stroke-dasharray:none"><tspan
         x="-78.125"
         y="0"
         id="tspan2208"><tspan
           dy="0 125 125 125"
           id="tspan2206">lin
</tspan></tspan></text><g
       id="g16632"
       transform="matrix(1.5032555,0,0,1.5032555,9.2522579,0.14558017)"
       style="fill-opacity:1.0;fill:url(#linearGradient980)"><g
         id="svg1105"
         style="fill-opacity:1.0;fill:url(#linearGradient980)">
	
		<sodipodi:namedview
   bordercolor="#eeeeee"
   borderopacity="1"
   id="namedview1107"
   inkscape:current-layer="layer1"
   inkscape:cx="31.613635"
   inkscape:cy="42.590592"
   inkscape:deskcolor="#505050"
   inkscape:document-units="mm"
   inkscape:guide-bbox="true"
   inkscape:pagecheckerboard="0"
   inkscape:pageopacity="0"
   inkscape:pageshadow="0"
   inkscape:showpageshadow="2"
   inkscape:snap-bbox="true"
   inkscape:window-height="878"
   inkscape:window-maximized="1"
   inkscape:window-width="1712"
   inkscape:window-x="0"
   inkscape:window-y="0"
   inkscape:zoom="1.1387491"
   pagecolor="#505050"
   showgrid="false"
   showguides="false"
   style="fill-opacity:1.0;fill:url(#linearGradient980)">
		
			<sodipodi:guide
   id="guide19177"
   inkscape:color="rgb(0,134,229)"
   inkscape:label=""
   inkscape:locked="false"
   orientation="-1,0"
   position="25,35.212513"
   style="fill-opacity:1.0;fill:url(#linearGradient980)">
			</sodipodi:guide>
		
			<sodipodi:guide
   id="guide8637"
   inkscape:color="rgb(0,134,229)"
   inkscape:label=""
   inkscape:locked="false"
   orientation="0,1"
   position="51.666992,25"
   style="fill-opacity:1.0;fill:url(#linearGradient980)">
			</sodipodi:guide>
	</sodipodi:namedview>
	
		<path
   id="path85576"
   inkscape:export-filename="/home/linn/path165266.png"
   inkscape:export-xdpi="96"
   inkscape:export-ydpi="96"
   inkscape:transform-center-x="0.00054717329"
   inkscape:transform-center-y="-1.6750655"
   sodipodi:nodetypes="zczczczczcz"
   class="st0"
   d="M 70.9,10.5 C 81.8,10.3 96,36.6 96,36.6 c 0,0 29.5,6.2 32.3,15.6 2.9,9.4 -16.7,32.3 -16.7,32.3 0,0 1.9,30.7 -4.8,35.5 -6.7,4.8 -35.7,-6.4 -35.7,-6.4 0,0 -27.6,12.5 -35.6,6.4 -8,-6.1 -5.3,-36 -5.3,-36 0,0 -19.7,-21.4 -16.9,-32 2.8,-10.6 32.2,-15.6 32.2,-15.6 0,0 14.4,-25.8 25.4,-25.9 z"
   style="stroke:url(#linearGradient4033);stroke-opacity:1;fill-opacity:1.0;fill:url(#linearGradient980)" />
	
		<path
   id="path75025"
   inkscape:export-filename="/home/linn/path165266.png"
   inkscape:export-xdpi="96"
   inkscape:export-ydpi="96"
   inkscape:transform-center-x="0.23708871"
   inkscape:transform-center-y="1.3391704"
   sodipodi:nodetypes="zczczczczcz"
   class="st0"
   d="m 14.1,85.8 c -2.8,-11 20,-28.9 20,-28.9 0,0 -5,-29.1 4.6,-36 C 48.3,14 73,31.5 73,31.5 c 0,0 26.8,-13.1 35.3,-6.4 8.5,6.7 0.9,35.6 0.9,35.6 0,0 21.2,21.2 16.7,31.4 -4.5,10.2 -33.7,11.9 -33.7,11.9 0,0 -13,26.4 -24.5,26.1 -11.5,-0.3 -21.9,-28.8 -21.9,-28.8 0,0 -28.9,-4.6 -31.7,-15.5 z"
   style="stroke:url(#linearGradient4031);stroke-opacity:1;fill-opacity:1.0;fill:url(#linearGradient980)" />
	
		<path
   id="path66158"
   inkscape:export-filename="/home/linn/path165266.png"
   inkscape:export-xdpi="96"
   inkscape:export-ydpi="96"
   inkscape:transform-center-x="-1.6199986"
   inkscape:transform-center-y="-0.047281698"
   sodipodi:nodetypes="czczczczczc"
   class="st0"
   d="m 37.1,71 c 0,0 -14.5,-21.3 -8.1,-30.3 6.4,-9 31.4,-1.6 31.4,-1.6 0,0 15.7,-20.4 26.3,-17.4 10.6,3 11.3,29.6 11.3,29.6 0,0 24.9,8.3 25,19.3 0.1,11 -24.3,20.2 -24.3,20.2 0,0 -2.1,25.1 -11.7,28.8 -9.6,3.7 -26.4,-16.4 -26.4,-16.4 0,0 -24.8,6.8 -30.8,-2.2 -5.9,-9.1 7.3,-30 7.3,-30 z"
   style="stroke:url(#linearGradient4027);stroke-opacity:1;fill-opacity:1.0;fill:url(#linearGradient980)" />
	
		<path
   id="path49333"
   inkscape:export-filename="/home/linn/path165266.png"
   inkscape:export-xdpi="96"
   inkscape:export-ydpi="96"
   inkscape:transform-center-x="0.65968318"
   inkscape:transform-center-y="-0.66761084"
   sodipodi:nodetypes="czczczczczc"
   class="st0"
   d="m 44.5,84.4 c 0,0 -17.2,-11.1 -16.1,-20.2 1.1,-9.1 21.9,-13.9 21.9,-13.9 0,0 5.6,-21.2 13.9,-22 8.3,-0.8 20.1,16.2 20.1,16.2 0,0 20.2,-1.4 24.5,7.4 4.4,8.7 -9,23.6 -9,23.6 0,0 7.6,19.4 1.2,25.6 -6.5,6.2 -25.4,-0.7 -25.4,-0.7 0,0 -17.6,12.3 -24.1,8.6 -6.4,-3.8 -7,-24.6 -7,-24.6 z"
   style="stroke:url(#linearGradient4035);stroke-opacity:1;fill-opacity:1.0;fill:url(#linearGradient980)" />
	
		<path
   id="path4489"
   inkscape:export-filename="/home/linn/path165266.png"
   inkscape:export-xdpi="96"
   inkscape:export-ydpi="96"
   inkscape:transform-center-x="-0.09979685"
   inkscape:transform-center-y="0.97386469"
   sodipodi:nodetypes="cczczczczcc"
   class="st0"
   d="m 91.8,42.1 c 6,4.4 1.7,21.4 1.7,21.4 0,0 14.8,11.7 12.2,18.9 -2.6,7.2 -20.8,7.8 -20.8,7.8 0,0 -6.7,16.6 -14.3,16.3 C 63,106.2 56.8,90.2 56.8,90.2 c 0,0 -18,-1.1 -20.3,-8 -2.3,-6.9 11.6,-18.6 11.6,-18.6 0,0 -4,-17.2 1.5,-21.4 5.5,-4.2 21.2,5 21.2,5 0,0 15.5,-8.8 21,-5.1 z"
   style="stroke:url(#linearGradient4029);stroke-opacity:1;fill-opacity:1.0;fill:url(#linearGradient980)" />
	
		<path
   id="path1062"
   class="st1"
   style="fill:url(#linearGradient982);stroke:url(#linearGradient4047);stroke-width:5.1372;stroke-miterlimit:11.3386;fill-opacity:1;stroke-opacity:1"
   d="m 92.100002,70.900002 a 21.200001,21.200001 0 0 1 -21.2,21.2 21.200001,21.200001 0 0 1 -21.200001,-21.2 21.200001,21.200001 0 0 1 21.200001,-21.200001 21.200001,21.200001 0 0 1 21.2,21.200001 z" />
	<g
   id="text13604"
   style="fill-opacity:1.0;fill:url(#linearGradient980)">
		<path
   id="path2746"
   class="st2"
   d="m 78.6,56 c 2.2,0.6 3.3,1.1 3.3,1.6 V 58 c 0,0.9 -0.4,1.5 -1.3,2 -1.7,-0.1 -2.9,-0.2 -3.8,-0.1 l 0.8,1 -0.8,4.1 h 0.3 c 1.2,0 2.8,-0.7 4.8,-1.9 h 0.2 c 0,0.1 0.8,0.7 2.5,1.9 -0.7,5.3 -1.2,8.2 -1.5,8.6 l -0.5,0.3 h -0.7 l -2,-1.4 h -0.7 c -1.7,0.3 -2.5,0.6 -2.5,1.1 v 4.6 l 0.2,0.5 c 0.2,0 3.4,-0.7 9.8,-2 1.8,0.7 2.8,1.3 2.8,1.6 v 0.5 C 89.2,80.3 88.7,81 88.2,81 85,80.6 82.8,80.5 81.4,80.5 c -7.3,0.3 -15.4,1.6 -24.1,4 -2,-0.8 -3,-1.3 -3,-1.6 v -0.2 l 11.6,-2.1 c 0,-0.1 -0.3,-0.5 -1,-1.2 0.2,-1.7 0.3,-3 0.3,-3.9 v -0.7 h -0.8 c -0.5,0 -1.8,0.5 -4,1.4 -0.7,0 -1.2,-0.4 -1.8,-1.2 0.3,-1.6 0.5,-3.3 0.5,-4.9 0,-0.4 -0.2,-1.4 -0.7,-2.9 h 1.5 c 0.7,0 1.4,0.1 2,0.4 0.5,0 1.6,-0.3 3.5,-0.9 V 61.8 L 65,61.3 c -2.4,0.6 -4,0.9 -4.8,0.9 0,-0.3 -0.7,-0.7 -2,-1.1 v -0.5 h 0.2 C 62.4,60.5 69,59 78,56.2 78.1,56.1 78.2,56 78.6,56 Z M 68.5,60.7 V 61 c 0.3,0 0.7,0.1 1.3,0.4 -0.3,0.8 -0.5,1.8 -0.5,3.2 v 1.9 l 0.5,0.7 v 0.2 c -0.8,1 -1.6,1.5 -2.5,1.5 H 66.5 L 65,68.1 h -0.3 c -0.4,0 -1.2,0.2 -2.3,0.6 v 0.5 c 0,2.7 0.4,4.1 1.3,4.1 0.3,0 1.1,-0.4 2.5,-1.1 1.8,0.4 2.9,1 3.3,1.8 l -0.2,4 0.3,1.7 h 0.5 l 3,-0.4 v -0.5 c 0,-2.1 -0.2,-4.6 -0.5,-7.5 0.2,0 0.2,-0.1 0.2,-0.3 1.6,0.3 2.5,0.4 2.8,0.4 l 4,-0.6 v -4.9 h -0.2 c -0.7,0 -2.1,0.6 -4.3,1.6 -0.9,0 -1.8,-0.6 -2.8,-1.8 v -5.4 c -0.8,0.1 -2.1,0.2 -3.8,0.4 z"
   style="fill-opacity:1.0;fill:url(#linearGradient980)" />
	</g>
	<path
   id="path8695"
   class="st3"
   style="display:none;fill:url(#linearGradient980);fill-opacity:1.0"
   d="m 353.9,189.8 a 42.400002,42.400002 0 0 1 -42.4,42.4 42.400002,42.400002 0 0 1 -42.4,-42.4 42.400002,42.400002 0 0 1 42.4,-42.4 42.400002,42.400002 0 0 1 42.4,42.4 z" />
	<g
   id="layer2-6"
   inkscape:groupmode="layer"
   inkscape:label="Layer 2"
   class="st4"
   style="fill-opacity:1.0;fill:url(#linearGradient980)">
		
			<linearGradient
   id="path4044_1_"
   gradientUnits="userSpaceOnUse"
   x1="-575.6886"
   y1="719.62091"
   x2="-575.55658"
   y2="719.62091"
   gradientTransform="matrix(2.8346,0,0,-2.8346,1702.5513,2110.7402)"
   style="fill-opacity:1.0;fill:url(#linearGradient980)">
			<stop
   offset="0"
   style="stop-color:#000000;stop-opacity:0.5412;fill-opacity:1.0;fill:url(#linearGradient980)"
   id="stop16557" />
			<stop
   offset="1"
   style="stop-color:#000000;fill-opacity:1.0;fill:url(#linearGradient980)"
   id="stop16559" />
		</linearGradient>
		<path
   id="path4044"
   class="st5"
   d="M 70.9,0 V 141.7"
   style="stroke:url(#path4044_1_);fill-opacity:1.0;fill:url(#linearGradient980)" />
		
			<linearGradient
   id="path4547_1_"
   gradientUnits="userSpaceOnUse"
   x1="-599.45837"
   y1="719.62091"
   x2="-551.86182"
   y2="719.62091"
   gradientTransform="matrix(2.8346,0,0,-2.8346,1702.5513,2110.7402)"
   style="fill-opacity:1.0;fill:url(#linearGradient980)">
			<stop
   offset="0"
   style="stop-color:#000000;stop-opacity:0.5412;fill-opacity:1.0;fill:url(#linearGradient980)"
   id="stop16563" />
			<stop
   offset="1"
   style="stop-color:#000000;fill-opacity:1.0;fill:url(#linearGradient980)"
   id="stop16565" />
		</linearGradient>
		<path
   id="path4547"
   sodipodi:nodetypes="ccc"
   class="st6"
   d="M 138.3,49 130,51.7 3.5,92.8"
   style="stroke:url(#path4547_1_);fill-opacity:1.0;fill:url(#linearGradient980)" />
		
			<linearGradient
   id="path4549_1_"
   gradientUnits="userSpaceOnUse"
   x1="-590.37158"
   y1="719.62091"
   x2="-560.87347"
   y2="719.62091"
   gradientTransform="matrix(2.8346,0,0,-2.8346,1702.5513,2110.7402)"
   style="fill-opacity:1.0;fill:url(#linearGradient980)">
			<stop
   offset="0"
   style="stop-color:#000000;stop-opacity:0.5412;fill-opacity:1.0;fill:url(#linearGradient980)"
   id="stop16569" />
			<stop
   offset="1"
   style="stop-color:#000000;fill-opacity:1.0;fill:url(#linearGradient980)"
   id="stop16571" />
		</linearGradient>
		<path
   id="path4549"
   class="st7"
   d="M 112.5,128.2 29.2,13.5"
   style="stroke:url(#path4549_1_);fill-opacity:1.0;fill:url(#linearGradient980)" />
		
			<linearGradient
   id="path4551_1_"
   gradientUnits="userSpaceOnUse"
   x1="-590.37158"
   y1="719.62091"
   x2="-560.87347"
   y2="719.62091"
   gradientTransform="matrix(2.8346,0,0,-2.8346,1702.5513,2110.7402)"
   style="fill-opacity:1.0;fill:url(#linearGradient980)">
			<stop
   offset="0"
   style="stop-color:#000000;stop-opacity:0.5412;fill-opacity:1.0;fill:url(#linearGradient980)"
   id="stop16575" />
			<stop
   offset="1"
   style="stop-color:#000000;fill-opacity:1.0;fill:url(#linearGradient980)"
   id="stop16577" />
		</linearGradient>
		<path
   id="path4551"
   class="st8"
   d="M 29.2,128.2 112.5,13.5"
   style="stroke:url(#path4551_1_);fill-opacity:1.0;fill:url(#linearGradient980)" />
		
			<linearGradient
   id="path4553_1_"
   gradientUnits="userSpaceOnUse"
   x1="-599.45837"
   y1="719.62091"
   x2="-551.86182"
   y2="719.62091"
   gradientTransform="matrix(2.8346,0,0,-2.8346,1702.5513,2110.7402)"
   style="fill-opacity:1.0;fill:url(#linearGradient980)">
			<stop
   offset="0"
   style="stop-color:#000000;stop-opacity:0.5412;fill-opacity:1.0;fill:url(#linearGradient980)"
   id="stop16581" />
			<stop
   offset="1"
   style="stop-color:#000000;fill-opacity:1.0;fill:url(#linearGradient980)"
   id="stop16583" />
		</linearGradient>
		<path
   id="path4553"
   class="st9"
   d="M 3.5,49 138.3,92.8"
   style="stroke:url(#path4553_1_);fill-opacity:1.0;fill:url(#linearGradient980)" />
	</g>
</g><g
         id="Layer_2"
         style="fill-opacity:1.0;fill:url(#linearGradient980)">
</g><g
         id="Layer_3"
         style="fill-opacity:1.0;fill:url(#linearGradient980)">
</g></g></g><style
     type="text/css"
     id="style16543">
	.st0{fill:#911F2A;stroke:#F3E5C8;stroke-width:5;stroke-miterlimit:10;}
	.st1{fill:#F3E5C8;stroke:#F3E5C8;stroke-width:5.1372;stroke-miterlimit:11.3386;}
	.st2{fill:#911F2A;}
	.st3{display:none;fill:#FF2222;}
	.st4{display:none;}
	.st5{display:inline;fill:none;stroke:url(#path4044_1_);stroke-width:0.3742;stroke-miterlimit:11.3386;}
	.st6{display:inline;fill:none;stroke:url(#path4547_1_);stroke-width:0.375;stroke-miterlimit:11.3386;}
	.st7{display:inline;fill:none;stroke:url(#path4549_1_);stroke-width:0.375;stroke-miterlimit:11.3386;}
	.st8{display:inline;fill:none;stroke:url(#path4551_1_);stroke-width:0.375;stroke-miterlimit:11.3386;}
	.st9{display:inline;fill:none;stroke:url(#path4553_1_);stroke-width:0.375;stroke-miterlimit:11.3386;}
</style></svg>
