<?xml version="1.0" encoding="UTF-8" standalone="no"?>
<!-- Created with Inkscape (http://www.inkscape.org/) -->

<svg
   width="4000"
   height="1000"
   viewBox="0 0 1058.3333 264.58333"
   version="1.1"
   id="svg5"
   inkscape:export-filename="bitmap.png"
   inkscape:export-xdpi="300"
   inkscape:export-ydpi="300"
   inkscape:version="1.2 (1:1.2.1+202207142221+cd75a1ee6d)"
   sodipodi:docname="Horisontell.svg"
   xml:space="preserve"
   xmlns:inkscape="http://www.inkscape.org/namespaces/inkscape"
   xmlns:sodipodi="http://sodipodi.sourceforge.net/DTD/sodipodi-0.dtd"
   xmlns:xlink="http://www.w3.org/1999/xlink"
   xmlns="http://www.w3.org/2000/svg"
   xmlns:svg="http://www.w3.org/2000/svg"><sodipodi:namedview
     id="namedview7"
     pagecolor="#ffffff"
     bordercolor="#000000"
     borderopacity="0"
     inkscape:showpageshadow="2"
     inkscape:pageopacity="1"
     inkscape:pagecheckerboard="0"
     inkscape:deskcolor="#d1d1d1"
     inkscape:document-units="mm"
     showgrid="false"
     showguides="false"
     inkscape:zoom="0.14994304"
     inkscape:cx="2387.5733"
     inkscape:cy="1960.7445"
     inkscape:window-width="1920"
     inkscape:window-height="995"
     inkscape:window-x="0"
     inkscape:window-y="0"
     inkscape:window-maximized="1"
     inkscape:current-layer="layer2"><sodipodi:guide
       position="1017.7203,127.01496"
       orientation="1,0"
       id="guide2010"
       inkscape:locked="false" /><sodipodi:guide
       position="624.2862,177.74037"
       orientation="1,0"
       id="guide542"
       inkscape:locked="false" /></sodipodi:namedview><defs
     id="defs2"><linearGradient
       id="linearGradient1331"
       inkscape:swatch="solid"><stop
         style="stop-color:#000000;stop-opacity:1;"
         offset="0"
         id="stop1329" /></linearGradient><linearGradient
       id="linearGradient1325"
       inkscape:swatch="solid"><stop
         style="stop-color:#f3e5c8;stop-opacity:1;"
         offset="0"
         id="stop1323" /></linearGradient><linearGradient
       id="linearGradient1221"
       inkscape:swatch="solid"><stop
         style="stop-color:#f3e5c8;stop-opacity:1;"
         offset="0"
         id="stop1219" /></linearGradient><linearGradient
       id="linearGradient1100"
       inkscape:swatch="solid"><stop
         style="stop-color:#000000;stop-opacity:1;"
         offset="0"
         id="stop1098" /></linearGradient><linearGradient
       id="linearGradient1837"
       inkscape:swatch="solid"><stop
         style="stop-color:#000000;stop-opacity:1;"
         offset="0"
         id="stop1835" /></linearGradient><linearGradient
       id="linearGradient1831"
       inkscape:swatch="solid"><stop
         style="stop-color:#911f2a;stop-opacity:1;"
         offset="0"
         id="stop1829" /></linearGradient><rect
       x="903.62628"
       y="107.68014"
       width="2929.698"
       height="274.0975"
       id="rect451" /><linearGradient
       id="linearGradient1219"
       inkscape:swatch="solid"><stop
         style="stop-color:#000000;stop-opacity:1;"
         offset="0"
         id="stop1217" /></linearGradient><linearGradient
       id="linearGradient1213"
       inkscape:swatch="solid"><stop
         style="stop-color:#000000;stop-opacity:1;"
         offset="0"
         id="stop1211" /></linearGradient><linearGradient
       id="linearGradient9837"
       inkscape:swatch="solid"><stop
         style="stop-color:#7f6047;stop-opacity:1;"
         offset="0"
         id="stop9835" /></linearGradient><linearGradient
       id="linearGradient9827"
       inkscape:swatch="solid"><stop
         style="stop-color:#f3e5c8;stop-opacity:1;"
         offset="0"
         id="stop9825" /></linearGradient><linearGradient
       id="linearGradient9769"
       inkscape:swatch="solid"><stop
         style="stop-color:#7f6047;stop-opacity:1;"
         offset="0"
         id="stop9767" /></linearGradient><linearGradient
       id="linearGradient9360"
       inkscape:swatch="solid"><stop
         style="stop-color:#000000;stop-opacity:1;"
         offset="0"
         id="stop9358" /></linearGradient><linearGradient
       id="linearGradient9147"
       inkscape:swatch="solid"><stop
         style="stop-color:#ffffff;stop-opacity:1;"
         offset="0"
         id="stop9145" /></linearGradient><linearGradient
       id="linearGradient9141"
       inkscape:swatch="solid"><stop
         style="stop-color:#f7f7f7;stop-opacity:1;"
         offset="0"
         id="stop9139" /></linearGradient><linearGradient
       id="linearGradient8997"
       inkscape:swatch="solid"><stop
         style="stop-color:#911f2a;stop-opacity:1;"
         offset="0"
         id="stop8995" /></linearGradient><rect
       x="549.66461"
       y="209.91638"
       width="1457.3186"
       height="152.62451"
       id="rect5792" /><rect
       x="189.00575"
       y="173.15366"
       width="2231.0352"
       height="232.56387"
       id="rect236" /><rect
       x="549.66461"
       y="209.91638"
       width="1457.3186"
       height="152.62451"
       id="rect5792-9" /><linearGradient
       inkscape:collect="always"
       xlink:href="#linearGradient9141"
       id="linearGradient9362"
       x1="1.9073486e-06"
       y1="132.29167"
       x2="687.91669"
       y2="132.29167"
       gradientUnits="userSpaceOnUse"
       gradientTransform="matrix(1.5569421,0,0,1.0318441,-6.3565287,-4.212712)" /><linearGradient
       inkscape:collect="always"
       xlink:href="#linearGradient8997"
       id="linearGradient12395"
       gradientUnits="userSpaceOnUse"
       x1="1034.3992"
       y1="240.3952"
       x2="1577.5227"
       y2="240.3952" /><linearGradient
       inkscape:collect="always"
       xlink:href="#linearGradient8997"
       id="linearGradient12399"
       gradientUnits="userSpaceOnUse"
       gradientTransform="matrix(1.2466057,0,0,1.2466057,-146.15782,-46.148432)"
       x1="280.35397"
       y1="179.17174"
       x2="653.13007"
       y2="179.17174" /><linearGradient
       inkscape:collect="always"
       xlink:href="#linearGradient8997"
       id="linearGradient495"
       gradientUnits="userSpaceOnUse"
       gradientTransform="matrix(0.98840817,0,0,0.98840817,360.82606,-35.36949)"
       x1="280.35397"
       y1="179.17174"
       x2="653.13007"
       y2="179.17174" /><linearGradient
       inkscape:collect="always"
       xlink:href="#linearGradient8997"
       id="linearGradient1602"
       gradientUnits="userSpaceOnUse"
       x1="1034.3992"
       y1="240.3952"
       x2="1577.5227"
       y2="240.3952" /><linearGradient
       inkscape:collect="always"
       xlink:href="#linearGradient8997"
       id="linearGradient1604"
       gradientUnits="userSpaceOnUse"
       gradientTransform="matrix(0.98840817,0,0,0.98840817,360.82606,-35.36949)"
       x1="280.35397"
       y1="179.17174"
       x2="653.13007"
       y2="179.17174" /><linearGradient
       inkscape:collect="always"
       xlink:href="#linearGradient8997"
       id="linearGradient1606"
       gradientUnits="userSpaceOnUse"
       gradientTransform="matrix(1.029029,0,0,1.029029,162.38121,-125.69069)"
       x1="280.35397"
       y1="179.17174"
       x2="653.13007"
       y2="179.17174" /><linearGradient
       inkscape:collect="always"
       xlink:href="#linearGradient8997"
       id="linearGradient1608"
       gradientUnits="userSpaceOnUse"
       x1="244.1702"
       y1="62.954391"
       x2="1023.3756"
       y2="62.954391" /><linearGradient
       inkscape:collect="always"
       xlink:href="#linearGradient8997"
       id="linearGradient1994"
       gradientUnits="userSpaceOnUse"
       x1="1034.3992"
       y1="240.3952"
       x2="1577.5227"
       y2="240.3952" /><linearGradient
       inkscape:collect="always"
       xlink:href="#linearGradient8997"
       id="linearGradient1996"
       gradientUnits="userSpaceOnUse"
       gradientTransform="matrix(0.98840817,0,0,0.98840817,360.82606,-35.36949)"
       x1="280.35397"
       y1="179.17174"
       x2="653.13007"
       y2="179.17174" /><linearGradient
       inkscape:collect="always"
       xlink:href="#linearGradient8997"
       id="linearGradient2026"
       gradientUnits="userSpaceOnUse"
       gradientTransform="matrix(1.0335443,0,0,1.0335443,160.74044,-126.4813)"
       x1="280.35397"
       y1="179.17174"
       x2="653.13007"
       y2="179.17174" /><linearGradient
       inkscape:collect="always"
       xlink:href="#linearGradient8997"
       id="linearGradient2028"
       gradientUnits="userSpaceOnUse"
       gradientTransform="matrix(1.0043879,0,0,1.0043879,-2.3532842,-0.23909159)"
       x1="244.1702"
       y1="62.954391"
       x2="1023.3756"
       y2="62.954391" /><linearGradient
       inkscape:collect="always"
       xlink:href="#linearGradient8997"
       id="linearGradient2103"
       gradientUnits="userSpaceOnUse"
       gradientTransform="matrix(11.827044,0,0,11.827044,-4244.8415,-727.20576)"
       x1="382.61328"
       y1="66.810112"
       x2="442.27676"
       y2="66.810112" /><linearGradient
       inkscape:collect="always"
       xlink:href="#linearGradient8997"
       id="linearGradient2105"
       gradientUnits="userSpaceOnUse"
       gradientTransform="matrix(11.827044,0,0,11.827044,-4244.8415,-727.20576)"
       x1="382.61328"
       y1="66.810112"
       x2="442.27676"
       y2="66.810112" /><linearGradient
       inkscape:collect="always"
       xlink:href="#linearGradient8997"
       id="linearGradient1102"
       x1="243.1244"
       y1="142.55975"
       x2="1000.481"
       y2="142.55975"
       gradientUnits="userSpaceOnUse" /><linearGradient
       inkscape:collect="always"
       xlink:href="#linearGradient9141"
       id="linearGradient1223"
       x1="10.510336"
       y1="70.300735"
       x2="131.12247"
       y2="70.300735"
       gradientUnits="userSpaceOnUse" /><linearGradient
       inkscape:collect="always"
       xlink:href="#linearGradient8997"
       id="linearGradient1225"
       gradientUnits="userSpaceOnUse"
       x1="10.510336"
       y1="70.300735"
       x2="131.12247"
       y2="70.300735" /><linearGradient
       inkscape:collect="always"
       xlink:href="#linearGradient9141"
       id="linearGradient1327"
       x1="47.131401"
       y1="70.900002"
       x2="94.668602"
       y2="70.900002"
       gradientUnits="userSpaceOnUse" /><linearGradient
       inkscape:collect="always"
       xlink:href="#linearGradient8997"
       id="linearGradient1333"
       x1="53.799999"
       y1="70.26339"
       x2="90"
       y2="70.26339"
       gradientUnits="userSpaceOnUse" /><linearGradient
       inkscape:collect="always"
       xlink:href="#linearGradient8997"
       id="linearGradient1698"
       gradientUnits="userSpaceOnUse"
       x1="1034.3992"
       y1="240.3952"
       x2="1577.5227"
       y2="240.3952" /><linearGradient
       inkscape:collect="always"
       xlink:href="#linearGradient8997"
       id="linearGradient1700"
       gradientUnits="userSpaceOnUse"
       x1="1034.3992"
       y1="240.3952"
       x2="1577.5227"
       y2="240.3952" /><linearGradient
       inkscape:collect="always"
       xlink:href="#linearGradient8997"
       id="linearGradient1702"
       gradientUnits="userSpaceOnUse"
       x1="1034.3992"
       y1="240.3952"
       x2="1577.5227"
       y2="240.3952" /><linearGradient
       inkscape:collect="always"
       xlink:href="#linearGradient8997"
       id="linearGradient1704"
       gradientUnits="userSpaceOnUse"
       x1="1034.3992"
       y1="240.3952"
       x2="1577.5227"
       y2="240.3952" /><linearGradient
       inkscape:collect="always"
       xlink:href="#linearGradient8997"
       id="linearGradient1706"
       gradientUnits="userSpaceOnUse"
       x1="1034.3992"
       y1="240.3952"
       x2="1577.5227"
       y2="240.3952" /><linearGradient
       inkscape:collect="always"
       xlink:href="#linearGradient8997"
       id="linearGradient1708"
       gradientUnits="userSpaceOnUse"
       x1="1034.3992"
       y1="240.3952"
       x2="1577.5227"
       y2="240.3952" /><linearGradient
       inkscape:collect="always"
       xlink:href="#linearGradient8997"
       id="linearGradient1710"
       gradientUnits="userSpaceOnUse"
       x1="1034.3992"
       y1="240.3952"
       x2="1577.5227"
       y2="240.3952" /><linearGradient
       inkscape:collect="always"
       xlink:href="#linearGradient8997"
       id="linearGradient1712"
       gradientUnits="userSpaceOnUse"
       x1="243.1244"
       y1="142.55975"
       x2="1000.481"
       y2="142.55975" /><linearGradient
       inkscape:collect="always"
       xlink:href="#linearGradient8997"
       id="linearGradient1714"
       gradientUnits="userSpaceOnUse"
       x1="243.1244"
       y1="142.55975"
       x2="1000.481"
       y2="142.55975" /><linearGradient
       inkscape:collect="always"
       xlink:href="#linearGradient8997"
       id="linearGradient1716"
       gradientUnits="userSpaceOnUse"
       x1="243.1244"
       y1="142.55975"
       x2="1000.481"
       y2="142.55975" /><linearGradient
       inkscape:collect="always"
       xlink:href="#linearGradient8997"
       id="linearGradient1718"
       gradientUnits="userSpaceOnUse"
       x1="243.1244"
       y1="142.55975"
       x2="1000.481"
       y2="142.55975" /><linearGradient
       inkscape:collect="always"
       xlink:href="#linearGradient8997"
       id="linearGradient1720"
       gradientUnits="userSpaceOnUse"
       x1="243.1244"
       y1="142.55975"
       x2="1000.481"
       y2="142.55975" /><linearGradient
       inkscape:collect="always"
       xlink:href="#linearGradient8997"
       id="linearGradient1722"
       gradientUnits="userSpaceOnUse"
       x1="243.1244"
       y1="142.55975"
       x2="1000.481"
       y2="142.55975" /><linearGradient
       inkscape:collect="always"
       xlink:href="#linearGradient8997"
       id="linearGradient1724"
       gradientUnits="userSpaceOnUse"
       x1="243.1244"
       y1="142.55975"
       x2="1000.481"
       y2="142.55975" /><linearGradient
       inkscape:collect="always"
       xlink:href="#linearGradient8997"
       id="linearGradient1726"
       gradientUnits="userSpaceOnUse"
       x1="243.1244"
       y1="142.55975"
       x2="1000.481"
       y2="142.55975" /><linearGradient
       inkscape:collect="always"
       xlink:href="#linearGradient8997"
       id="linearGradient1728"
       gradientUnits="userSpaceOnUse"
       x1="243.1244"
       y1="142.55975"
       x2="1000.481"
       y2="142.55975" /><linearGradient
       inkscape:collect="always"
       xlink:href="#linearGradient8997"
       id="linearGradient1730"
       gradientUnits="userSpaceOnUse"
       x1="243.1244"
       y1="142.55975"
       x2="1000.481"
       y2="142.55975" /><linearGradient
       inkscape:collect="always"
       xlink:href="#linearGradient8997"
       id="linearGradient1732"
       gradientUnits="userSpaceOnUse"
       x1="243.1244"
       y1="142.55975"
       x2="1000.481"
       y2="142.55975" /><linearGradient
       inkscape:collect="always"
       xlink:href="#linearGradient8997"
       id="linearGradient1734"
       gradientUnits="userSpaceOnUse"
       x1="243.1244"
       y1="142.55975"
       x2="1000.481"
       y2="142.55975" /><linearGradient
       inkscape:collect="always"
       xlink:href="#linearGradient8997"
       id="linearGradient1736"
       gradientUnits="userSpaceOnUse"
       x1="243.1244"
       y1="142.55975"
       x2="1000.481"
       y2="142.55975" /><linearGradient
       inkscape:collect="always"
       xlink:href="#linearGradient8997"
       id="linearGradient1738"
       gradientUnits="userSpaceOnUse"
       x1="243.1244"
       y1="142.55975"
       x2="1000.481"
       y2="142.55975" /><linearGradient
       inkscape:collect="always"
       xlink:href="#linearGradient8997"
       id="linearGradient1740"
       gradientUnits="userSpaceOnUse"
       x1="243.1244"
       y1="142.55975"
       x2="1000.481"
       y2="142.55975" /><linearGradient
       inkscape:collect="always"
       xlink:href="#linearGradient8997"
       id="linearGradient1742"
       gradientUnits="userSpaceOnUse"
       x1="243.1244"
       y1="142.55975"
       x2="1000.481"
       y2="142.55975" /><linearGradient
       inkscape:collect="always"
       xlink:href="#linearGradient8997"
       id="linearGradient1744"
       gradientUnits="userSpaceOnUse"
       x1="243.1244"
       y1="142.55975"
       x2="1000.481"
       y2="142.55975" /><linearGradient
       inkscape:collect="always"
       xlink:href="#linearGradient8997"
       id="linearGradient1746"
       gradientUnits="userSpaceOnUse"
       x1="243.1244"
       y1="142.55975"
       x2="1000.481"
       y2="142.55975" /><linearGradient
       inkscape:collect="always"
       xlink:href="#linearGradient8997"
       id="linearGradient1748"
       gradientUnits="userSpaceOnUse"
       x1="243.1244"
       y1="142.55975"
       x2="1000.481"
       y2="142.55975" /><linearGradient
       inkscape:collect="always"
       xlink:href="#linearGradient8997"
       id="linearGradient1750"
       gradientUnits="userSpaceOnUse"
       x1="243.1244"
       y1="142.55975"
       x2="1000.481"
       y2="142.55975" /><linearGradient
       inkscape:collect="always"
       xlink:href="#linearGradient8997"
       id="linearGradient1752"
       gradientUnits="userSpaceOnUse"
       gradientTransform="matrix(11.827044,0,0,11.827044,-4244.8415,-727.20576)"
       x1="382.61328"
       y1="66.810112"
       x2="442.27676"
       y2="66.810112" /><linearGradient
       inkscape:collect="always"
       xlink:href="#linearGradient8997"
       id="linearGradient1754"
       gradientUnits="userSpaceOnUse"
       gradientTransform="matrix(11.827044,0,0,11.827044,-4244.8415,-727.20576)"
       x1="382.61328"
       y1="66.810112"
       x2="442.27676"
       y2="66.810112" /><linearGradient
       inkscape:collect="always"
       xlink:href="#linearGradient8997"
       id="linearGradient1756"
       gradientUnits="userSpaceOnUse"
       gradientTransform="matrix(11.827044,0,0,11.827044,-4244.8415,-727.20576)"
       x1="382.61328"
       y1="66.810112"
       x2="442.27676"
       y2="66.810112" /><linearGradient
       inkscape:collect="always"
       xlink:href="#linearGradient8997"
       id="linearGradient1758"
       gradientUnits="userSpaceOnUse"
       gradientTransform="matrix(11.827044,0,0,11.827044,-4244.8415,-727.20576)"
       x1="382.61328"
       y1="66.810112"
       x2="442.27676"
       y2="66.810112" /><linearGradient
       inkscape:collect="always"
       xlink:href="#linearGradient8997"
       id="linearGradient1760"
       gradientUnits="userSpaceOnUse"
       gradientTransform="matrix(11.827044,0,0,11.827044,-4244.8415,-727.20576)"
       x1="382.61328"
       y1="66.810112"
       x2="442.27676"
       y2="66.810112" /><linearGradient
       inkscape:collect="always"
       xlink:href="#linearGradient8997"
       id="linearGradient1762"
       gradientUnits="userSpaceOnUse"
       gradientTransform="matrix(11.827044,0,0,11.827044,-4244.8415,-727.20576)"
       x1="382.61328"
       y1="66.810112"
       x2="442.27676"
       y2="66.810112" /><linearGradient
       inkscape:collect="always"
       xlink:href="#linearGradient8997"
       id="linearGradient1764"
       gradientUnits="userSpaceOnUse"
       gradientTransform="matrix(11.827044,0,0,11.827044,-4244.8415,-727.20576)"
       x1="382.61328"
       y1="66.810112"
       x2="442.27676"
       y2="66.810112" /><linearGradient
       inkscape:collect="always"
       xlink:href="#linearGradient8997"
       id="linearGradient1766"
       gradientUnits="userSpaceOnUse"
       gradientTransform="matrix(11.827044,0,0,11.827044,-4244.8415,-727.20576)"
       x1="382.61328"
       y1="66.810112"
       x2="442.27676"
       y2="66.810112" /><linearGradient
       inkscape:collect="always"
       xlink:href="#linearGradient8997"
       id="linearGradient1768"
       gradientUnits="userSpaceOnUse"
       gradientTransform="matrix(11.827044,0,0,11.827044,-4244.8415,-727.20576)"
       x1="382.61328"
       y1="66.810112"
       x2="442.27676"
       y2="66.810112" /><linearGradient
       inkscape:collect="always"
       xlink:href="#linearGradient8997"
       id="linearGradient1770"
       gradientUnits="userSpaceOnUse"
       gradientTransform="matrix(11.827044,0,0,11.827044,-4244.8415,-727.20576)"
       x1="382.61328"
       y1="66.810112"
       x2="442.27676"
       y2="66.810112" /><linearGradient
       inkscape:collect="always"
       xlink:href="#linearGradient8997"
       id="linearGradient1772"
       gradientUnits="userSpaceOnUse"
       gradientTransform="matrix(11.827044,0,0,11.827044,-4244.8415,-727.20576)"
       x1="382.61328"
       y1="66.810112"
       x2="442.27676"
       y2="66.810112" /><linearGradient
       inkscape:collect="always"
       xlink:href="#linearGradient8997"
       id="linearGradient1774"
       gradientUnits="userSpaceOnUse"
       gradientTransform="matrix(11.827044,0,0,11.827044,-4244.8415,-727.20576)"
       x1="382.61328"
       y1="66.810112"
       x2="442.27676"
       y2="66.810112" /><linearGradient
       inkscape:collect="always"
       xlink:href="#linearGradient8997"
       id="linearGradient1776"
       gradientUnits="userSpaceOnUse"
       gradientTransform="matrix(11.827044,0,0,11.827044,-4244.8415,-727.20576)"
       x1="382.61328"
       y1="66.810112"
       x2="442.27676"
       y2="66.810112" /><linearGradient
       inkscape:collect="always"
       xlink:href="#linearGradient8997"
       id="linearGradient1778"
       gradientUnits="userSpaceOnUse"
       gradientTransform="matrix(11.827044,0,0,11.827044,-4244.8415,-727.20576)"
       x1="382.61328"
       y1="66.810112"
       x2="442.27676"
       y2="66.810112" /><linearGradient
       inkscape:collect="always"
       xlink:href="#linearGradient8997"
       id="linearGradient1780"
       gradientUnits="userSpaceOnUse"
       gradientTransform="matrix(11.827044,0,0,11.827044,-4244.8415,-727.20576)"
       x1="382.61328"
       y1="66.810112"
       x2="442.27676"
       y2="66.810112" /><linearGradient
       inkscape:collect="always"
       xlink:href="#linearGradient8997"
       id="linearGradient1782"
       gradientUnits="userSpaceOnUse"
       gradientTransform="matrix(11.827044,0,0,11.827044,-4244.8415,-727.20576)"
       x1="382.61328"
       y1="66.810112"
       x2="442.27676"
       y2="66.810112" /><linearGradient
       inkscape:collect="always"
       xlink:href="#linearGradient8997"
       id="linearGradient1784"
       gradientUnits="userSpaceOnUse"
       gradientTransform="matrix(11.827044,0,0,11.827044,-4244.8415,-727.20576)"
       x1="382.61328"
       y1="66.810112"
       x2="442.27676"
       y2="66.810112" /><linearGradient
       inkscape:collect="always"
       xlink:href="#linearGradient8997"
       id="linearGradient1786"
       gradientUnits="userSpaceOnUse"
       gradientTransform="matrix(11.827044,0,0,11.827044,-4244.8415,-727.20576)"
       x1="382.61328"
       y1="66.810112"
       x2="442.27676"
       y2="66.810112" /><linearGradient
       inkscape:collect="always"
       xlink:href="#linearGradient8997"
       id="linearGradient1788"
       gradientUnits="userSpaceOnUse"
       gradientTransform="matrix(1.0043879,0,0,1.0043879,-2.3532842,-0.23909159)"
       x1="244.1702"
       y1="62.954391"
       x2="1023.3756"
       y2="62.954391" /><linearGradient
       inkscape:collect="always"
       xlink:href="#linearGradient9141"
       id="linearGradient1790"
       gradientUnits="userSpaceOnUse"
       x1="10.510336"
       y1="70.300735"
       x2="131.12247"
       y2="70.300735" /><linearGradient
       inkscape:collect="always"
       xlink:href="#linearGradient9141"
       id="linearGradient1792"
       gradientUnits="userSpaceOnUse"
       x1="10.510336"
       y1="70.300735"
       x2="131.12247"
       y2="70.300735" /><linearGradient
       inkscape:collect="always"
       xlink:href="#linearGradient9141"
       id="linearGradient1794"
       gradientUnits="userSpaceOnUse"
       x1="10.510336"
       y1="70.300735"
       x2="131.12247"
       y2="70.300735" /><linearGradient
       inkscape:collect="always"
       xlink:href="#linearGradient9141"
       id="linearGradient1796"
       gradientUnits="userSpaceOnUse"
       x1="10.510336"
       y1="70.300735"
       x2="131.12247"
       y2="70.300735" /><linearGradient
       inkscape:collect="always"
       xlink:href="#linearGradient9141"
       id="linearGradient1798"
       gradientUnits="userSpaceOnUse"
       x1="10.510336"
       y1="70.300735"
       x2="131.12247"
       y2="70.300735" /><linearGradient
       inkscape:collect="always"
       xlink:href="#linearGradient9141"
       id="linearGradient1800"
       gradientUnits="userSpaceOnUse"
       x1="10.510336"
       y1="70.300735"
       x2="131.12247"
       y2="70.300735" /><linearGradient
       inkscape:collect="always"
       xlink:href="#linearGradient8997"
       id="linearGradient1802"
       gradientUnits="userSpaceOnUse"
       x1="10.510336"
       y1="70.300735"
       x2="131.12247"
       y2="70.300735" /><linearGradient
       inkscape:collect="always"
       xlink:href="#linearGradient9141"
       id="linearGradient1804"
       gradientUnits="userSpaceOnUse"
       x1="10.510336"
       y1="70.300735"
       x2="131.12247"
       y2="70.300735" /><linearGradient
       inkscape:collect="always"
       xlink:href="#linearGradient9141"
       id="linearGradient1806"
       gradientUnits="userSpaceOnUse"
       x1="10.510336"
       y1="70.300735"
       x2="131.12247"
       y2="70.300735" /><linearGradient
       inkscape:collect="always"
       xlink:href="#linearGradient9141"
       id="linearGradient1808"
       gradientUnits="userSpaceOnUse"
       x1="10.510336"
       y1="70.300735"
       x2="131.12247"
       y2="70.300735" /><linearGradient
       inkscape:collect="always"
       xlink:href="#linearGradient9141"
       id="linearGradient1810"
       gradientUnits="userSpaceOnUse"
       x1="10.510336"
       y1="70.300735"
       x2="131.12247"
       y2="70.300735" /><linearGradient
       inkscape:collect="always"
       xlink:href="#linearGradient9141"
       id="linearGradient1812"
       gradientUnits="userSpaceOnUse"
       x1="10.510336"
       y1="70.300735"
       x2="131.12247"
       y2="70.300735" /><linearGradient
       inkscape:collect="always"
       xlink:href="#linearGradient9141"
       id="linearGradient1814"
       gradientUnits="userSpaceOnUse"
       x1="10.510336"
       y1="70.300735"
       x2="131.12247"
       y2="70.300735" /><linearGradient
       inkscape:collect="always"
       xlink:href="#linearGradient9141"
       id="linearGradient1816"
       gradientUnits="userSpaceOnUse"
       x1="10.510336"
       y1="70.300735"
       x2="131.12247"
       y2="70.300735" /><linearGradient
       inkscape:collect="always"
       xlink:href="#linearGradient9141"
       id="linearGradient1818"
       gradientUnits="userSpaceOnUse"
       x1="10.510336"
       y1="70.300735"
       x2="131.12247"
       y2="70.300735" /><linearGradient
       inkscape:collect="always"
       xlink:href="#linearGradient9141"
       id="linearGradient1820"
       gradientUnits="userSpaceOnUse"
       x1="10.510336"
       y1="70.300735"
       x2="131.12247"
       y2="70.300735" /><linearGradient
       inkscape:collect="always"
       xlink:href="#linearGradient9141"
       id="linearGradient1822"
       gradientUnits="userSpaceOnUse"
       x1="10.510336"
       y1="70.300735"
       x2="131.12247"
       y2="70.300735" /><linearGradient
       inkscape:collect="always"
       xlink:href="#linearGradient9141"
       id="linearGradient1824"
       gradientUnits="userSpaceOnUse"
       x1="10.510336"
       y1="70.300735"
       x2="131.12247"
       y2="70.300735" /></defs><g
     inkscape:groupmode="layer"
     id="layer2"
     inkscape:label="Layer 2"><rect
       style="opacity:1;fill:url(#linearGradient9362);fill-opacity:1;stroke:none;stroke-width:10.3495;stroke-dasharray:none;stroke-opacity:1"
       id="rect7012"
       width="1058.3334"
       height="264.58334"
       x="0"
       y="0" /></g><g
     inkscape:label="Layer 1"
     inkscape:groupmode="layer"
     id="layer1"><g
       id="g1992"
       transform="translate(-8.232327,26.458333)"><g
         aria-label="EAST ASIAN"
         transform="matrix(0.59904259,0,0,0.59904259,-361.56336,-4.9271403)"
         id="text234"
         style="font-weight:300;font-size:125px;font-family:KorolevLiU;-inkscape-font-specification:'KorolevLiU Light';text-align:center;white-space:pre;shape-inside:url(#rect236);display:inline;opacity:1;fill:url(#linearGradient1994);stroke-width:24.3024"><path
           d="m 1058.0867,217.5202 h -32.25 v 20 h 23.875 v 15 h -23.875 v 20 h 32.25 v 16.5 h -49.5 v -88.125 h 49.5 z"
           style="font-weight:bold;-inkscape-font-specification:'KorolevLiU Bold';fill:url(#linearGradient1698)"
           id="path2810" /><path
           d="m 1116.4615,289.0202 -4.625,-17.375 h -25.625 l -4.875,17.375 h -17.5 l 25.875,-88.125 h 18.875 l 25.5,88.125 z m -26.625,-32.25 h 18.375 l -9,-34.5 z"
           style="font-weight:bold;-inkscape-font-specification:'KorolevLiU Bold';fill:url(#linearGradient1700)"
           id="path2812" /><path
           d="m 1180.8363,263.8952 q 0,-3.375 -2.375,-5.75 -2.25,-2.375 -5.875,-3.75 -3.625,-1.5 -8.125,-2.875 -4.5,-1.375 -9,-3.25 -4.375,-2 -8,-4.625 -3.625,-2.75 -6,-7.375 -2.25,-4.75 -2.25,-11.125 0,-12 7.875,-18.875 7.875,-7 21.125,-7 12.875,0 20.75,8 8,8 8,21.5 h -17 q 0,-6.875 -3.25,-10.25 -3.125,-3.5 -8.75,-3.5 -11.5,0 -11.5,10.125 0,4.75 4.25,7.625 4.375,2.875 10.5,4.625 6.125,1.75 12.125,4.125 6.125,2.375 10.375,8 4.375,5.5 4.375,14.25 0,12.375 -8.25,19.625 -8.125,7.125 -21.625,7.125 -13.5,0 -21.875,-8.25 -8.25,-8.25 -8.25,-22.25 h 17.25 q 0,7.375 3.375,11 3.5,3.5 9.5,3.5 5.75,0 9.125,-2.625 3.5,-2.75 3.5,-8 z"
           style="font-weight:bold;-inkscape-font-specification:'KorolevLiU Bold';fill:url(#linearGradient1702)"
           id="path2814" /><path
           d="m 1258.7112,217.5202 h -18.375 v 71.5 h -17.25 v -71.5 h -18.375 v -16.625 h 54 z"
           style="font-weight:bold;-inkscape-font-specification:'KorolevLiU Bold';fill:url(#linearGradient1704)"
           id="path2816" /><path
           d="m 1340.961,289.0202 -4.625,-17.375 h -25.625 l -4.875,17.375 h -17.5 l 25.875,-88.125 h 18.875 l 25.5,88.125 z m -26.625,-32.25 h 18.375 l -9,-34.5 z"
           style="font-weight:bold;-inkscape-font-specification:'KorolevLiU Bold';fill:url(#linearGradient1706)"
           id="path2818" /><path
           d="m 1405.3358,263.8952 q 0,-3.375 -2.375,-5.75 -2.25,-2.375 -5.875,-3.75 -3.625,-1.5 -8.125,-2.875 -4.5,-1.375 -9,-3.25 -4.375,-2 -8,-4.625 -3.625,-2.75 -6,-7.375 -2.25,-4.75 -2.25,-11.125 0,-12 7.875,-18.875 7.875,-7 21.125,-7 12.875,0 20.75,8 8,8 8,21.5 h -17 q 0,-6.875 -3.25,-10.25 -3.125,-3.5 -8.75,-3.5 -11.5,0 -11.5,10.125 0,4.75 4.25,7.625 4.375,2.875 10.5,4.625 6.125,1.75 12.125,4.125 6.125,2.375 10.375,8 4.375,5.5 4.375,14.25 0,12.375 -8.25,19.625 -8.125,7.125 -21.625,7.125 -13.5,0 -21.875,-8.25 -8.25,-8.25 -8.25,-22.25 h 17.25 q 0,7.375 3.375,11 3.5,3.5 9.5,3.5 5.75,0 9.125,-2.625 3.5,-2.75 3.5,-8 z"
           style="font-weight:bold;-inkscape-font-specification:'KorolevLiU Bold';fill:url(#linearGradient1708)"
           id="path2820" /><path
           d="m 1452.8357,289.0202 h -17.25 v -88.125 h 17.25 z"
           style="font-weight:bold;-inkscape-font-specification:'KorolevLiU Bold';fill:url(#linearGradient1710)"
           id="path2822" /></g><g
         aria-label="ASSOCIATION "
         id="text242"
         style="font-weight:300;font-size:74.4957px;font-family:KorolevLiU;-inkscape-font-specification:'KorolevLiU Light';text-align:center;text-anchor:middle;opacity:1;fill:url(#linearGradient1996);stroke:#000000;stroke-width:14.4833"
         transform="matrix(1.0325015,0,0,1.0325015,-9.4869449,-5.4825262)"><g
           aria-label="EAST ASIAN ASSOCIATION"
           id="text468"
           style="font-weight:normal;font-size:72.4953px;line-height:1.25;font-family:sans-serif;fill:url(#linearGradient1102);stroke:none;stroke-width:5.4686"><path
             d="m 271.83253,126.68328 h -18.70378 v 11.59925 h 13.8466 v 8.69943 h -13.8466 v 11.59925 h 18.70378 v 9.56938 H 243.1244 V 117.0414 h 28.70813 z"
             style="font-weight:bold;font-family:KorolevLiU;-inkscape-font-specification:KorolevLiU;fill:url(#linearGradient1712)"
             id="path1950" /><path
             d="m 305.68772,168.15059 -2.68233,-10.07685 h -14.86153 l -2.82732,10.07685 H 275.1672 l 15.00653,-51.10919 h 10.94679 l 14.78904,51.10919 z m -15.4415,-18.70379 h 10.65681 l -5.21966,-20.0087 z"
             style="font-weight:bold;font-family:KorolevLiU;-inkscape-font-specification:KorolevLiU;fill:url(#linearGradient1714)"
             id="path1952" /><path
             d="m 343.02268,153.57903 q 0,-1.95737 -1.37741,-3.33478 -1.30492,-1.37741 -3.40728,-2.17486 -2.10236,-0.86994 -4.71219,-1.66739 -2.60984,-0.79745 -5.21967,-1.88488 -2.53733,-1.15992 -4.6397,-2.68233 -2.10236,-1.59489 -3.47977,-4.27722 -1.30492,-2.75482 -1.30492,-6.45208 0,-6.95955 4.56721,-10.94679 4.5672,-4.05974 12.2517,-4.05974 7.46702,0 12.03422,4.6397 4.6397,4.6397 4.6397,12.46919 h -9.85936 q 0,-3.98724 -1.88488,-5.94461 -1.81238,-2.02987 -5.07467,-2.02987 -6.66956,0 -6.66956,5.87212 0,2.75482 2.46484,4.42221 2.53733,1.6674 6.0896,2.68233 3.55227,1.01493 7.03205,2.39234 3.55227,1.37742 6.01711,4.6397 2.53733,3.1898 2.53733,8.26447 0,7.17703 -4.78469,11.38176 -4.71219,4.13223 -12.54169,4.13223 -7.82949,0 -12.68667,-4.78469 -4.78469,-4.78469 -4.78469,-12.90416 h 10.00435 q 0,4.27722 1.95737,6.37959 2.02987,2.02986 5.50964,2.02986 3.33479,0 5.29216,-1.5224 2.02987,-1.59489 2.02987,-4.6397 z"
             style="font-weight:bold;font-family:KorolevLiU;-inkscape-font-specification:KorolevLiU;fill:url(#linearGradient1716)"
             id="path1954" /><path
             d="m 388.1872,126.68328 h -10.65681 v 41.46731 h -10.00435 v -41.46731 h -10.65681 v -9.64188 h 31.31797 z"
             style="font-weight:bold;font-family:KorolevLiU;-inkscape-font-specification:KorolevLiU;fill:url(#linearGradient1718)"
             id="path1956" /><path
             d="m 435.88896,168.15059 -2.68232,-10.07685 H 418.3451 l -2.82732,10.07685 h -10.14934 l 15.00653,-51.10919 h 10.94679 l 14.78904,51.10919 z m -15.4415,-18.70379 h 10.65681 l -5.21966,-20.0087 z"
             style="font-weight:bold;font-family:KorolevLiU;-inkscape-font-specification:KorolevLiU;fill:url(#linearGradient1720)"
             id="path1958" /><path
             d="m 473.22393,153.57903 q 0,-1.95737 -1.37741,-3.33478 -1.30492,-1.37741 -3.40728,-2.17486 -2.10237,-0.86994 -4.7122,-1.66739 -2.60983,-0.79745 -5.21966,-1.88488 -2.53733,-1.15992 -4.6397,-2.68233 -2.10236,-1.59489 -3.47977,-4.27722 -1.30492,-2.75482 -1.30492,-6.45208 0,-6.95955 4.56721,-10.94679 4.5672,-4.05974 12.2517,-4.05974 7.46702,0 12.03422,4.6397 4.6397,4.6397 4.6397,12.46919 h -9.85936 q 0,-3.98724 -1.88488,-5.94461 -1.81238,-2.02987 -5.07467,-2.02987 -6.66957,0 -6.66957,5.87212 0,2.75482 2.46484,4.42221 2.53734,1.6674 6.08961,2.68233 3.55227,1.01493 7.03204,2.39234 3.55227,1.37742 6.01711,4.6397 2.53734,3.1898 2.53734,8.26447 0,7.17703 -4.78469,11.38176 -4.7122,4.13223 -12.54169,4.13223 -7.82949,0 -12.68668,-4.78469 -4.78469,-4.78469 -4.78469,-12.90416 h 10.00436 q 0,4.27722 1.95737,6.37959 2.02987,2.02986 5.50964,2.02986 3.33479,0 5.29216,-1.5224 2.02987,-1.59489 2.02987,-4.6397 z"
             style="font-weight:bold;font-family:KorolevLiU;-inkscape-font-specification:KorolevLiU;fill:url(#linearGradient1722)"
             id="path1960" /><path
             d="M 500.77209,168.15059 H 490.76774 V 117.0414 h 10.00435 z"
             style="font-weight:bold;font-family:KorolevLiU;-inkscape-font-specification:KorolevLiU;fill:url(#linearGradient1724)"
             id="path1962" /><path
             d="m 536.80217,168.15059 -2.68232,-10.07685 h -14.86154 l -2.82732,10.07685 h -10.14934 l 15.00653,-51.10919 h 10.94679 l 14.78904,51.10919 z m -15.4415,-18.70379 h 10.65681 l -5.21966,-20.0087 z"
             style="font-weight:bold;font-family:KorolevLiU;-inkscape-font-specification:KorolevLiU;fill:url(#linearGradient1726)"
             id="path1964" /><path
             d="m 586.46132,168.15059 h -9.42439 l -15.07902,-29.57808 v 29.57808 H 551.95356 V 117.0414 h 9.42439 l 15.00652,29.72308 v -29.57809 h 10.07685 z"
             style="font-weight:bold;font-family:KorolevLiU;-inkscape-font-specification:KorolevLiU;fill:url(#linearGradient1728)"
             id="path1966" /><path
             d="m 638.15022,168.15059 -2.68232,-10.07685 h -14.86154 l -2.82731,10.07685 H 607.6297 l 15.00653,-51.10919 h 10.94679 l 14.78904,51.10919 z M 622.70873,149.4468 h 10.6568 l -5.21966,-20.0087 z"
             style="font-weight:bold;font-family:KorolevLiU;-inkscape-font-specification:KorolevLiU;fill:url(#linearGradient1730)"
             id="path1968" /><path
             d="m 675.4852,153.57903 q 0,-1.95737 -1.37741,-3.33478 -1.30491,-1.37741 -3.40728,-2.17486 -2.10236,-0.86994 -4.71219,-1.66739 -2.60983,-0.79745 -5.21966,-1.88488 -2.53734,-1.15992 -4.6397,-2.68233 -2.10237,-1.59489 -3.47978,-4.27722 -1.30491,-2.75482 -1.30491,-6.45208 0,-6.95955 4.5672,-10.94679 4.56721,-4.05974 12.25171,-4.05974 7.46701,0 12.03422,4.6397 4.6397,4.6397 4.6397,12.46919 h -9.85936 q 0,-3.98724 -1.88488,-5.94461 -1.81238,-2.02987 -5.07467,-2.02987 -6.66957,0 -6.66957,5.87212 0,2.75482 2.46484,4.42221 2.53734,1.6674 6.08961,2.68233 3.55227,1.01493 7.03204,2.39234 3.55227,1.37742 6.01711,4.6397 2.53734,3.1898 2.53734,8.26447 0,7.17703 -4.78469,11.38176 -4.7122,4.13223 -12.54169,4.13223 -7.82949,0 -12.68668,-4.78469 -4.78469,-4.78469 -4.78469,-12.90416 h 10.00435 q 0,4.27722 1.95738,6.37959 2.02986,2.02986 5.50964,2.02986 3.33478,0 5.29216,-1.5224 2.02986,-1.59489 2.02986,-4.6397 z"
             style="font-weight:bold;font-family:KorolevLiU;-inkscape-font-specification:KorolevLiU;fill:url(#linearGradient1732)"
             id="path1970" /><path
             d="m 714.85007,153.57903 q 0,-1.95737 -1.37741,-3.33478 -1.30491,-1.37741 -3.40728,-2.17486 -2.10236,-0.86994 -4.71219,-1.66739 -2.60983,-0.79745 -5.21966,-1.88488 -2.53734,-1.15992 -4.6397,-2.68233 -2.10237,-1.59489 -3.47978,-4.27722 -1.30491,-2.75482 -1.30491,-6.45208 0,-6.95955 4.5672,-10.94679 4.5672,-4.05974 12.25171,-4.05974 7.46701,0 12.03422,4.6397 4.6397,4.6397 4.6397,12.46919 h -9.85937 q 0,-3.98724 -1.88487,-5.94461 -1.81239,-2.02987 -5.07467,-2.02987 -6.66957,0 -6.66957,5.87212 0,2.75482 2.46484,4.42221 2.53733,1.6674 6.0896,2.68233 3.55227,1.01493 7.03205,2.39234 3.55227,1.37742 6.01711,4.6397 2.53733,3.1898 2.53733,8.26447 0,7.17703 -4.78469,11.38176 -4.71219,4.13223 -12.54168,4.13223 -7.8295,0 -12.68668,-4.78469 -4.78469,-4.78469 -4.78469,-12.90416 h 10.00435 q 0,4.27722 1.95737,6.37959 2.02987,2.02986 5.50965,2.02986 3.33478,0 5.29215,-1.5224 2.02987,-1.59489 2.02987,-4.6397 z"
             style="font-weight:bold;font-family:KorolevLiU;-inkscape-font-specification:KorolevLiU;fill:url(#linearGradient1734)"
             id="path1972" /><path
             d="m 747.69039,168.87554 q -7.612,0 -12.39669,-4.92968 -4.78469,-4.92968 -4.78469,-12.68668 v -17.39887 q 0,-7.82949 4.78469,-12.75917 4.78469,-5.00218 12.39669,-5.00218 7.53951,0 12.3242,5.00218 4.85719,4.92968 4.85719,12.75917 v 17.39887 q 0,7.757 -4.85719,12.68668 -4.78469,4.92968 -12.3242,4.92968 z m 0,-9.56938 q 2.97231,0 5.07467,-1.81238 2.10237,-1.81238 2.10237,-5.87212 v -18.12382 q 0,-3.98725 -2.02987,-5.87212 -2.02987,-1.95738 -5.14717,-1.95738 -3.0448,0 -5.07467,1.88488 -2.02987,1.81238 -2.02987,5.87212 v 18.12383 q 0,3.98724 1.95738,5.87211 2.02987,1.88488 5.14716,1.88488 z"
             style="font-weight:bold;font-family:KorolevLiU;-inkscape-font-specification:KorolevLiU;fill:url(#linearGradient1736)"
             id="path1974" /><path
             d="m 795.75473,134.73026 q 0,-9.06192 -7.17704,-9.06192 -2.97231,0 -5.07467,1.88488 -2.02987,1.81238 -2.02987,5.87212 v 18.12383 q 0,4.13223 2.02987,6.01711 2.02987,1.81238 5.07467,1.81238 3.62477,0 5.36465,-2.17486 1.81239,-2.17486 1.81239,-7.53951 v -0.65246 h 10.00435 q 0,19.93621 -17.18139,19.93621 -7.612,0 -12.39669,-4.92968 -4.78469,-4.92968 -4.78469,-12.75918 v -17.54386 q 0,-7.757 4.78469,-12.68668 4.78469,-4.92968 12.39669,-4.92968 8.40946,0 12.75918,5.14717 4.42221,5.14717 4.42221,14.20908 h -10.00435 z"
             style="font-weight:bold;font-family:KorolevLiU;-inkscape-font-specification:KorolevLiU;fill:url(#linearGradient1738)"
             id="path1976" /><path
             d="M 823.37538,168.15059 H 813.37103 V 117.0414 h 10.00435 z"
             style="font-weight:bold;font-family:KorolevLiU;-inkscape-font-specification:KorolevLiU;fill:url(#linearGradient1740)"
             id="path1978" /><path
             d="m 859.4055,168.15059 -2.68232,-10.07685 h -14.86154 l -2.82732,10.07685 h -10.14934 l 15.00653,-51.10919 h 10.94679 l 14.78904,51.10919 z M 843.96401,149.4468 h 10.6568 l -5.21966,-20.0087 z"
             style="font-weight:bold;font-family:KorolevLiU;-inkscape-font-specification:KorolevLiU;fill:url(#linearGradient1742)"
             id="path1980" /><path
             d="m 899.27775,126.68328 h -10.65681 v 41.46731 h -10.00435 v -41.46731 h -10.65681 v -9.64188 h 31.31797 z"
             style="font-weight:bold;font-family:KorolevLiU;-inkscape-font-specification:KorolevLiU;fill:url(#linearGradient1744)"
             id="path1982" /><path
             d="M 915.15425,168.15059 H 905.1499 V 117.0414 h 10.00435 z"
             style="font-weight:bold;font-family:KorolevLiU;-inkscape-font-specification:KorolevLiU;fill:url(#linearGradient1746)"
             id="path1984" /><path
             d="m 940.74499,168.87554 q -7.61201,0 -12.3967,-4.92968 -4.78469,-4.92968 -4.78469,-12.68668 v -17.39887 q 0,-7.82949 4.78469,-12.75917 4.78469,-5.00218 12.3967,-5.00218 7.53951,0 12.3242,5.00218 4.85719,4.92968 4.85719,12.75917 v 17.39887 q 0,7.757 -4.85719,12.68668 -4.78469,4.92968 -12.3242,4.92968 z m 0,-9.56938 q 2.97231,0 5.07467,-1.81238 2.10236,-1.81238 2.10236,-5.87212 v -18.12382 q 0,-3.98725 -2.02986,-5.87212 -2.02987,-1.95738 -5.14717,-1.95738 -3.0448,0 -5.07467,1.88488 -2.02987,1.81238 -2.02987,5.87212 v 18.12383 q 0,3.98724 1.95737,5.87211 2.02987,1.88488 5.14717,1.88488 z"
             style="font-weight:bold;font-family:KorolevLiU;-inkscape-font-specification:KorolevLiU;fill:url(#linearGradient1748)"
             id="path1986" /><path
             d="m 1000.481,168.15059 h -9.42435 l -15.07903,-29.57808 v 29.57808 H 965.97327 V 117.0414 h 9.42439 l 15.00653,29.72308 v -29.57809 h 10.07681 z"
             style="font-weight:bold;font-family:KorolevLiU;-inkscape-font-specification:KorolevLiU;fill:url(#linearGradient1750)"
             id="path1988" /></g></g><g
         aria-label="林雪平大学東亞協会 "
         id="text242-6"
         style="font-weight:300;font-size:78.6604px;font-family:KorolevLiU;-inkscape-font-specification:'KorolevLiU Light';text-align:center;text-anchor:middle;fill:url(#linearGradient2026);stroke:url(#linearGradient2028);stroke-width:1.06297"><g
           aria-label="林雪平大學東亞協會"
           id="text457"
           style="font-weight:normal;font-size:78.2308px;font-family:HanyiSentyTang;-inkscape-font-specification:HanyiSentyTang;letter-spacing:21.1667px;text-orientation:upright;opacity:1;fill:url(#linearGradient2103);stroke:url(#linearGradient2105);stroke-width:1.05833"><path
             d="m 285.72845,37.171155 0.95496,-0.0382 q 0.30559,0 4.88943,3.819863 -0.95497,3.437877 -1.29875,9.396863 l 0.34378,-0.0382 q 1.33696,-0.0382 6.18818,-2.21552 0.87857,-0.0382 3.89626,1.527945 0,1.489747 -1.60434,3.36148 -0.53478,0.0382 -3.93446,-0.152795 -4.08725,0.458384 -4.88942,0.496582 v 1.68074 q 7.25774,9.855247 16.6546,14.706473 v 0.993164 q -7.56333,4.278247 -8.17451,4.316446 -4.54564,-2.482911 -7.48693,-12.376357 -0.99316,-3.05589 -0.99316,-3.972657 h -0.30559 v 0.687575 q 0.30559,17.991555 0.30559,26.968234 -3.13229,2.444712 -3.89626,2.482911 -1.90994,0.0764 -6.22638,-5.424206 3.28508,-0.802171 3.28508,-1.451548 v -27.35022 q -5.80619,1.222356 -7.52513,1.94813 -2.33012,-1.222356 -2.9031,-1.184157 v -0.687576 q 1.18416,-0.0382 10.42823,-2.062726 V 39.27208 q 0,-0.420185 2.29192,-2.100925 z m -28.076,1.757137 q 2.44472,-0.114596 7.52514,2.368315 -0.34379,6.684761 -0.34379,10.008042 v 0.687575 q 2.10092,-0.0764 4.24005,-2.177322 5.5388,0.916767 5.5388,2.444713 -0.45839,1.680739 -2.29192,1.757137 l -2.25372,0.114596 q -0.76397,0 -1.29875,-0.30559 -0.57298,0.343788 -1.33696,0.381987 l -2.5975,0.114596 v 0.649376 q 0,2.062726 6.83755,6.073583 2.29192,2.330116 2.29192,3.934459 v 0.305589 q -0.57298,4.354644 -3.59067,4.46924 -1.10776,-1.069562 -5.19501,-7.792521 v 12.987535 q 0,13.67511 -2.9413,13.789705 l -3.28508,0.114596 q -2.9031,-2.330116 -2.9031,-4.889424 v -0.30559 q 2.59751,-0.114595 2.59751,-3.437876 V 67.882855 q -8.09811,9.014877 -15.31765,11.268596 h -0.34379 q 11.154,-12.987535 12.72014,-20.474466 l -0.34378,-2.330117 h 0.34378 l 2.9413,2.52111 v -0.993165 l -0.34379,-2.330116 -0.64938,0.0382 q -0.87856,0.0382 -4.88942,1.527945 -0.57298,0.0382 -4.54564,-1.145959 v -0.687576 q 8.4037,-1.642541 10.08444,-1.718938 V 40.914621 l -1.29875,-1.642541 z m 19.5959,17.915158 q 5.5388,1.031363 5.5388,4.125453 v 0.649376 q -1.79533,8.441898 -13.36952,18.526336 v -0.343787 q 8.13631,-16.005227 8.13631,-20.627261 v -0.687576 l -0.99316,-1.298753 z"
             id="path2227"
             style="fill:url(#linearGradient1752);stroke:url(#linearGradient1754)" /><path
             d="m 369.7701,31.555956 q 3.81986,0.496583 3.81986,2.368316 0,0.381986 -1.68074,2.521109 l -4.24004,-0.26739 -0.87857,0.0382 q -8.97668,0.30559 -17.41858,3.514275 -4.66023,-1.069562 -5.08042,-1.069562 v -0.802171 q 10.19904,-1.604343 25.47849,-6.302775 z m -11.0394,6.188179 q 5.08041,1.566144 5.08041,2.673904 -0.42018,1.298753 -0.42018,3.323281 4.01085,-0.152795 21.27664,-3.667069 5.5006,-0.190993 9.32046,8.747487 v 0.802171 q 0,1.909932 -5.92079,2.673904 -11.49778,-1.145959 -11.49778,-2.444712 8.48009,-2.597507 9.35866,-4.46924 -1.64254,-0.763973 -4.66023,-0.649377 -10.39003,0.381987 -18.71733,1.909932 v 8.250904 q 0,0.381986 0.42018,0.381986 0,0.420185 -0.42018,0.420185 l 0.42018,4.927624 v 3.705267 q -1.90993,2.979493 -3.81986,3.858062 h -0.84037 q -2.02453,-1.184158 -3.39968,-3.972658 0.84037,-0.878568 1.26056,-7.028548 -4.08726,3.705267 -9.77885,8.174507 h -0.42019 q -1.37515,0.0382 -2.55931,-4.010856 l 12.75835,-5.004021 -0.42019,-0.802171 v -7.410535 q -9.32046,2.406514 -10.61922,2.444713 -1.37515,-0.763973 -2.13912,-0.763973 v 0.420185 q 0.84037,3.055891 0.84037,5.729795 v 0.84037 q -0.91677,6.188178 -5.08042,6.340972 l -0.42018,0.0382 q -2.55931,-1.68074 -2.55931,-3.62887 2.97949,-7.907117 3.81986,-12.490952 -0.42018,-0.687576 -0.42018,-1.604343 0.11459,-0.84037 0.84037,-0.878568 2.13912,2.406513 2.13912,3.62887 l 13.59871,-2.559309 v -6.149979 q 0.68758,-1.68074 2.9795,-1.757137 z m 10.19903,8.671089 h 0.42018 q 3.89627,1.451548 4.66024,3.094089 v 0.420185 q -4.69843,5.118617 -10.61922,5.347808 h -0.42019 q 5.95899,-5.080418 5.95899,-7.639726 z m -20.39807,4.431041 q 6.79936,2.406514 6.79936,3.476076 -1.71894,2.139123 -1.71894,2.521109 -7.63973,-1.145959 -7.63973,-5.080418 1.41335,-0.84037 2.55931,-0.916767 z m 18.25895,4.698432 q 8.51829,-0.305589 8.51829,4.622034 v 1.642541 q 0,0.84037 -0.84037,0.878569 l -1.71894,0.0382 -8.93848,-6.226377 v -0.420185 z m 8.09811,8.3655 q 0.68757,-0.0382 6.37917,5.118617 -3.39968,5.615198 -3.39968,22.346199 -3.05589,2.979493 -5.11862,3.05589 l -1.26055,0.0382 q -3.39968,-2.21552 -3.39968,-4.813027 -10.31363,0.802171 -18.71733,1.909931 -2.13912,-1.145959 -2.97949,-1.10776 v -0.84037 l 1.71894,-0.0382 q 21.23843,-2.635705 21.23843,-5.309609 V 79.72443 l -0.84037,0.0382 q -10.8866,0.381986 -16.99839,1.871733 -2.13912,-1.184158 -2.97949,-1.145959 v -0.802171 q 9.35867,-0.343788 21.23844,-4.889425 0,-0.534781 0.42018,-4.125452 -7.90711,0.26739 -20.81825,1.986329 -2.13912,-1.184158 -2.97949,-1.145959 v -0.802172 l 0.84037,-0.0382 q 25.0965,-2.826699 25.0965,-5.844391 1.37515,-0.878568 2.55931,-0.916767 z"
             id="path2229"
             style="fill:url(#linearGradient1756);stroke:url(#linearGradient1758)" /><path
             d="m 468.74742,36.101594 q 2.52111,0.725774 4.39284,3.476075 v 0.343788 q 0,1.069561 -1.45155,1.10776 -3.32328,-0.649377 -4.77483,-0.611178 l -1.83353,0.0382 q -10.46643,0.190993 -28.64898,5.538801 -3.13228,-1.718938 -3.66707,-1.718938 v -0.687576 z m -5.50061,6.149979 h 1.06956 q 6.26458,0.84037 6.26458,3.399678 0,4.507439 -11.38319,12.681946 h -0.38199 v -0.343788 q 5.15682,-7.372336 5.15682,-14.668274 -0.72578,0 -0.72578,-0.725774 z m -12.49095,0.611178 q 3.81986,0.611178 6.60836,3.437877 -0.38198,4.774829 -0.38198,7.104946 v 6.761157 l 24.25613,-4.049055 q 3.20868,1.260555 3.28508,2.062726 v 0.725774 q 0,2.291918 -2.21552,3.246884 -2.7503,-0.687575 -5.11862,-0.611178 l -2.5975,0.0382 q -10.23724,0.190993 -17.60957,1.413349 v 17.074788 q 0,13.522316 -5.88259,13.636911 -1.83354,-4.278246 -1.83354,-8.174507 V 64.215786 h -0.34378 q -8.90029,1.260555 -18.75553,3.934459 -3.39968,-1.718938 -4.39284,-1.68074 v -0.725774 q 4.73663,-1.145959 23.49215,-4.354644 -0.34378,-9.014877 -0.34378,-13.178527 v -2.826699 q 0,-1.986329 1.83353,-2.52111 z m -10.27543,4.125452 q 4.81303,-0.114595 5.5006,12.338158 l -0.76397,0.343788 -2.55931,0.0764 q -3.28508,-2.406513 -3.28508,-7.066746 v -2.139124 q 0,-1.718938 1.10776,-3.552473 z"
             id="path2231"
             style="fill:url(#linearGradient1760);stroke:url(#linearGradient1762)" /><path
             d="m 542.9338,64.406779 v 0 q 1.90994,2.406514 11.84158,8.93848 9.96984,6.493767 22.91918,12.490952 -1.26056,0.190994 -3.28508,0.993165 -1.98633,0.802171 -4.12546,1.757137 -3.01769,1.375151 -4.69843,1.909931 -6.41737,-2.21552 -11.30679,-6.799356 -4.88943,-4.622034 -8.05991,-9.396863 -3.17049,-4.813028 -4.39285,-7.601528 -2.13912,8.900281 -5.4242,14.24809 -3.28508,5.347808 -6.68476,8.021712 -3.39968,2.712103 -5.88259,3.62887 -2.48291,0.916767 -3.01769,0.954966 -0.0382,0 -0.0764,0 3.47607,-2.024527 6.60836,-6.875754 3.13229,-4.889424 5.5388,-11.268596 2.44472,-6.41737 3.81987,-13.140329 0,0 -0.0382,0 0,0 -0.0382,0 -2.94129,0.611178 -4.62203,0.916767 -1.79534,0.305589 -2.7885,0.57298 -0.99317,0.229191 -1.87174,0.687575 l -5.5006,-2.941295 q 4.12545,-0.26739 8.02171,-0.993164 3.93446,-0.763973 7.48693,-1.718938 1.06957,-6.646562 0.64938,-11.956172 -0.38199,-5.347808 -2.59751,-8.09811 -0.11459,-0.152794 -0.0764,-0.534781 0.0382,-0.420185 0.15279,-0.878568 0.1528,-0.458384 0.26739,-0.84037 0.1146,-0.343788 0.1528,-0.496582 0.0382,-0.190993 0.0382,-0.305589 0,-0.114596 0,-0.190994 0,-0.0764 0,-0.190993 0.0382,-0.114596 0.1146,-0.420185 0.26739,0.0764 0.61118,0.152795 1.90993,0.26739 4.12545,1.451548 2.25372,1.145959 3.05589,4.507438 0.30559,9.091275 -0.49658,16.234419 2.29192,-0.611178 4.20185,-0.993165 2.7885,-0.572979 4.20185,-1.10776 1.41335,-0.57298 2.13912,-0.993164 0.45839,-0.267391 0.87857,-0.420185 0.45838,-0.190994 1.03136,-0.267391 0.76398,-0.0764 1.79534,0.229192 1.03136,0.305589 2.06272,0.763973 1.03137,0.458383 1.71894,0.840369 0.68758,0.343788 0.68758,0.343788 0.0764,0.229192 0.0382,0.763973 0,0.496582 -0.0382,0.878568 0,0.190993 0,0.267391 0,0.0764 -0.1528,0.381986 -0.11459,0.305589 -0.26739,0.611178 -0.15279,0.305589 -0.26739,0.458384 -0.26739,0.305589 -0.45838,0.611178 -0.26739,0.420185 -0.64938,0.725774 -0.38198,0.305589 -1.26055,0.343787 -0.87857,0.0382 -2.59751,-0.305589 -1.87173,-0.343787 -5.76799,0 -3.85806,0.305589 -7.79252,0.878569 -0.191,1.298753 -0.42019,2.559308 0.26739,0.305589 0.49658,0.611178 z"
             id="path2233"
             style="fill:url(#linearGradient1764);stroke:url(#linearGradient1766)" /><path
             d="m 625.48572,30.90658 q 1.48975,-0.0764 3.05589,4.698431 -0.61117,0 -1.52794,1.527946 2.48291,-0.0764 5.34781,0.53478 1.90993,-4.392842 1.90993,-5.997185 -0.38199,0.0382 -0.38199,-0.343787 l 0.76398,-0.381987 q 3.81986,1.566144 3.81986,3.934459 -1.03136,2.330117 -2.29192,3.781665 v 0.343788 q 2.21552,-0.0764 4.20185,3.934459 -0.57298,1.489746 -1.14596,1.527945 h -0.38199 q -2.36831,0.114596 -5.3478,-3.132288 -5.6534,3.89626 -6.49377,3.934459 1.33695,-1.336952 3.81986,-4.927623 0,-0.496583 -4.96582,-2.7885 -2.63571,0.458383 -4.20185,0.496582 l -1.90993,0.0764 -0.42019,1.871733 v 1.489747 q 0.1146,1.833534 0.80218,1.833534 2.7885,-0.763973 3.81986,-1.642541 h 0.76397 q 0.49658,-0.0382 1.90993,1.757137 0,0.763972 -1.14596,0.802171 l -1.90993,-0.305589 q -3.24688,0.84037 -3.81986,0.878568 v 5.195014 q 0.64938,-0.0382 5.34781,-2.062726 1.52794,1.604343 1.52794,1.795336 0,0.611178 -6.49376,1.718938 v 4.813028 q 8.55649,-0.305589 11.45958,-6.722959 -4.35464,-2.7885 -4.96582,-2.7885 v -0.725774 q 0.87857,-0.0382 6.11178,1.260555 1.14596,-2.062727 1.14596,-3.36148 -0.38198,0 -0.38198,-0.381986 0.38198,0 0.38198,-0.381987 2.63571,0.954966 3.43788,2.482911 v 0.725774 l -0.76397,2.635706 q 1.68074,0.458384 4.58383,3.89626 h 0.38199 q 6.14998,-0.229191 6.14998,-2.444712 0.38198,-0.496582 0.38198,-2.597507 v -1.10776 h -0.38198 q -4.54564,0.916767 -5.76799,0.954965 v -0.763972 q 0.76397,0 6.53196,-2.062726 v -0.381987 l -0.38199,-3.705267 -6.53196,1.375151 -0.38199,-0.725774 v -0.381986 q 2.06273,-0.0764 6.91395,-2.100925 l -0.38198,-3.705267 -1.14596,0.0382 q -1.37515,0.0764 -6.53197,0.993165 V 35.9106 q 0,-0.496582 6.91396,-2.826698 0.11459,-0.763973 0.76397,-0.763973 l 2.29192,-0.0764 q 2.33011,-0.114596 4.96582,1.642541 -1.14596,3.437877 -1.14596,12.261761 v 5.195013 q 6.57016,-0.229191 9.16767,9.282268 -1.83353,1.94813 -4.20185,2.024527 l -1.14596,0.0382 q -2.48291,0.0764 -9.93164,-1.871733 V 60.47232 l 6.87575,-3.972657 q 0.76397,-0.0382 0.76397,-0.763973 -2.90309,-0.649377 -5.3478,-0.534781 l -8.82389,0.305589 q -4.81302,0.190993 -25.24929,3.896261 l -2.67391,-0.649377 v 0.343788 q 0.76398,3.476075 0.76398,5.538801 0,6.684761 -4.20185,6.837555 h -0.76398 q -2.6739,-1.795336 -2.6739,-3.590671 3.43788,-7.907117 3.43788,-11.612384 V 54.05495 l 1.14596,-0.0382 q 0,0.916767 1.90993,3.62887 l 2.29191,-0.458384 V 56.80525 q -0.57297,0.0382 -1.52794,-0.649377 l 0.38199,-1.871733 V 35.757806 q 0.11459,-0.763973 0.76397,-0.763973 1.41335,-0.0764 5.38601,1.260555 1.75713,-0.0382 5.3478,-5.004021 z m 2.67391,23.606754 v 0.343788 h 0.38198 q 5.11862,-0.916768 7.63973,-1.031364 v -0.343787 q 0,-0.496582 -2.6739,-2.139124 -4.50744,3.132288 -5.34781,3.170487 z m 11.42139,4.049055 0.38199,-0.0382 q 5.88258,0.0382 5.88258,1.566144 v 0.381986 q 0,2.712103 -8.82388,9.893446 0.80217,0 1.45155,0.305589 l -0.34379,1.795336 v 1.795335 q 13.9425,-1.336952 13.9425,-3.361479 l 1.10776,-0.0382 q 3.59067,1.833534 3.66707,2.368315 0,1.260555 -1.48975,2.864897 l -2.5593,-0.229191 -6.95216,0.229191 q -2.40651,0.0764 -7.37233,0.611179 0.72577,7.907116 0.72577,11.383192 0,7.448733 -6.22637,7.677925 -4.04906,-0.420185 -4.04906,-3.781665 3.32328,-0.114596 3.32328,-5.424206 v -9.244068 h -0.38198 q -7.52514,0.26739 -14.66828,3.017692 l -2.94129,-3.09409 v -0.687575 l 0.34378,-0.0382 q 1.79534,-0.0382 16.922,-1.298753 l 0.34379,-0.725774 q 0,-1.795336 -1.45155,-1.757137 l 0.72577,-1.069562 V 70.25117 q -1.10776,0.0382 -1.10776,-0.687575 0.38199,0 0.38199,-0.381987 l 3.66707,0.611178 q 5.11861,-6.340972 5.11861,-8.3655 h -0.34379 q -5.88258,1.642541 -13.59871,4.774829 -0.45838,0 -2.94129,-2.750301 v -0.343788 q 15.58504,-1.986329 17.26578,-4.545637 z"
             id="path2235"
             style="fill:url(#linearGradient1768);stroke:url(#linearGradient1770)" /><path
             d="m 722.17111,69.525396 v 0 q 2.5975,2.062726 10.54282,6.188178 7.94531,4.087254 17.22758,6.952151 -2.7121,0.725774 -4.73663,1.757137 -2.02453,1.031363 -3.39968,1.871733 -1.26055,0.802171 -2.02452,1.10776 -3.97266,-1.031363 -7.41054,-3.667068 -3.39968,-2.673904 -6.03538,-5.767994 -2.63571,-3.132287 -4.16365,-5.538801 0.0382,6.68476 -0.191,11.459589 -0.22919,4.774829 -0.84037,6.14998 -0.0382,0.0764 -0.11459,0.458383 -0.30559,1.107761 -1.06956,2.979494 -0.76398,1.909931 -1.94813,2.750301 -0.53479,0.190993 -0.87857,-0.26739 -0.34379,-0.458384 -0.64938,-1.184158 -0.42018,-1.069562 -1.14596,-1.871733 -1.06956,-0.993164 -2.44471,-1.909931 -1.37515,-0.916767 -2.44471,-1.527946 -0.87857,-0.53478 -1.22236,-0.763972 0.26739,-0.0382 0.64938,-0.0382 1.06956,-0.0764 2.55931,-0.229192 1.48974,-0.114596 2.7121,-0.343787 1.22235,-0.229192 1.45155,-0.57298 0.45838,-1.031363 0.57298,-6.837555 0.15279,-5.84439 0.11459,-13.904302 -2.17732,0.534781 -3.85806,1.298754 0.26739,0 0.49658,0.0382 0.68758,0.0764 1.18416,0.114595 0.53478,0 0.57298,-0.0764 0.34379,0 0.68757,0.267391 0.38199,0.229191 0.49659,0.687575 0.15279,0.420185 -0.2292,0.993164 -0.87856,2.215521 -3.97265,6.14998 -3.05589,3.89626 -6.83756,7.25774 -3.74346,3.36148 -6.64656,3.89626 0.42019,-0.381986 2.44471,-2.559308 2.02453,-2.215521 4.58384,-5.195014 2.55931,-3.017692 4.58383,-5.806192 2.02453,-2.7885 2.44472,-4.392842 0,-0.0764 -0.1528,-0.305589 -0.15279,-0.267391 -0.34379,-0.534781 -0.0764,-0.0764 -0.11459,-0.152795 -0.99317,0.496582 -1.68074,0.878569 -0.49658,0.26739 -0.80217,0.420185 l -4.96582,-1.68074 q 1.37515,-0.0764 2.90309,-0.343788 -0.15279,-0.114596 -0.34379,-0.152794 v 0 q 0.0764,0.0382 0.191,0.0382 0.11459,0 0.30559,0.0382 -0.191,-0.0382 -0.38199,-0.0382 -0.0764,-0.0382 -0.19099,-0.0382 -0.1146,-0.0764 -0.2292,-0.57298 -0.11459,-0.496582 -0.19099,-1.069561 -0.0764,-0.611179 -0.0382,-0.954966 -0.0764,-0.381987 -0.87857,-2.368315 -0.80217,-2.024528 -1.87173,-4.545637 -1.03136,-2.559309 -1.87173,-4.46924 -0.80217,-1.948131 -0.95497,-2.177322 -0.15279,-0.229192 0.22919,-0.381987 0.42019,-0.190993 1.10776,-0.152794 0.76398,0.0764 1.64255,0.26739 4.96582,-0.534781 12.45275,-2.024527 -0.0764,-3.858062 -0.15279,-6.952151 -0.38199,0.114596 -0.72578,0.190993 -2.36831,0.534781 -3.36148,0.954966 -0.95496,0.420185 -1.48974,0.802171 -0.2674,0.152795 -0.53479,0.343788 l -4.62203,-4.163651 q 6.72296,-0.381986 10.65742,-1.184158 -0.1146,-4.431041 -0.1528,-4.660233 -0.0764,-0.114595 -0.64937,-0.687575 -0.57298,-0.572979 -1.33696,-1.298753 -0.76397,-0.763973 -1.37515,-1.336953 -0.57298,-0.572979 -0.68757,-0.687575 0.11459,0 0.26739,0 0.26739,0 0.95496,-0.114596 0.72578,-0.114596 1.56615,-0.305589 0.84037,-0.152794 1.52794,-0.26739 0.72578,-0.152795 1.03137,-0.114596 0.61118,0.0764 1.18415,0.496582 0.57298,0.381986 1.14596,0.916767 0.91677,0.916767 1.75714,1.260555 -0.30559,0.496582 -0.30559,5.653397 1.37515,-0.53478 1.94813,-0.954965 0.30559,-0.190993 0.57298,-0.305589 0.26739,-0.152795 0.61118,-0.190993 0.49658,-0.0382 1.14596,0.190993 0.64937,0.229191 1.26055,0.611178 0.64938,0.343787 1.06956,0.611178 0.42019,0.26739 0.42019,0.26739 0.0764,0.190993 0.0382,0.57298 0,0.381986 0,0.649376 -0.0382,0.152795 -0.0382,0.190994 0,0.0764 -0.0764,0.305589 -0.0764,0.229191 -0.19099,0.458383 -0.0764,0.229192 -0.1146,0.343788 -0.19099,0.229192 -0.30559,0.420185 -0.15279,0.343788 -0.42018,0.572979 -0.22919,0.229192 -0.80217,0.267391 -0.53478,0 -1.60434,-0.305589 -1.37516,-0.305589 -3.47608,-0.152795 0.0382,3.017692 0.0764,6.570165 6.03538,-1.298754 8.2127,-2.024528 0.0764,-0.0382 0.0764,-0.0382 0.49658,-0.229192 0.84037,-0.458384 0.45838,-0.420185 1.06956,-0.458383 2.8649,0.114595 4.85123,2.062726 2.02453,1.94813 1.98633,3.62887 -3.78167,6.493767 -4.73663,10.542822 0,0 -0.30559,0.190993 -0.26739,0.152795 -0.72578,0.420185 -0.45838,0.26739 -0.95496,0.534781 -0.1146,0.114596 -0.26739,0.190993 0.45838,0.190993 0.72577,0.343788 0.26739,0.152794 0.26739,0.152794 0.0382,0.114596 0.0382,0.420185 0,0.305589 -0.0382,0.534781 0,0.114596 0,0.152794 0,0.0764 -0.0764,0.267391 -0.0764,0.152794 -0.19099,0.343788 -0.0764,0.190993 -0.11459,0.26739 -0.191,0.190993 -0.30559,0.343788 -0.1528,0.26739 -0.38199,0.458383 -0.22919,0.152795 -0.76397,0.190993 -0.49658,0 -1.52795,-0.229191 -1.03136,-0.152795 -3.13229,-0.0764 -2.06272,0.0382 -4.27824,0.267391 0.0382,1.718938 0.0382,3.399678 z m 7.21954,-19.748692 v 0 q -4.27825,0.649376 -7.48693,1.145958 0.0382,0.534781 0.0382,1.069562 0.0382,1.833534 0.0764,3.743466 0.84037,-0.26739 1.29876,-0.534781 0.45838,-0.26739 0.72577,-0.458383 0.22919,-0.152795 0.42018,-0.267391 0.191,-0.114596 0.42019,-0.152794 0.34379,-0.0382 0.80217,0.152794 0.45838,0.190993 0.87857,0.458384 0.45838,0.26739 0.72577,0.496582 0.30559,0.190993 0.30559,0.190993 0.0764,0.152795 0.0382,0.458384 0,0.26739 0,0.496582 -0.0382,0.114596 -0.0382,0.152794 0,0.0382 -0.0382,0.229192 -0.0382,0.190993 -0.11459,0.381987 -0.0764,0.152794 -0.1146,0.229191 -0.11459,0.190993 -0.19099,0.343788 -0.1146,0.26739 -0.30559,0.458384 -0.1528,0.152794 -0.53478,0.190993 -0.38199,0 -1.14596,-0.229192 -0.99316,-0.190993 -3.09409,-0.0382 0.0382,2.864898 0.0764,5.729795 1.22235,-0.343788 2.10092,-0.534781 1.68074,-0.305589 2.52111,-0.611178 0.84037,-0.343788 1.26056,-0.611178 0.19099,-0.0764 0.34378,-0.152795 -0.15279,-0.53478 -0.26739,-0.954965 -0.0764,-0.381987 -0.15279,-0.57298 -0.0764,-0.229192 -0.22919,-0.26739 v 0 q 0.11459,0 0.30559,0.0382 0.0382,0 0.11459,0 -0.15279,0 -0.26739,-0.0382 -0.0764,0 -0.19099,0 -0.26739,-0.114596 -0.53478,-0.190993 0.42018,0 0.64938,-0.114596 0.26739,-0.152795 0.49658,-0.496582 0.0764,-0.267391 0.26739,-1.871733 0.19099,-1.642542 0.42018,-3.781665 0.22919,-2.177322 0.42019,-4.087253 z m -12.29996,1.909931 v 0 q -2.02453,0.305589 -3.13229,0.534781 -2.29192,0.458384 -3.47607,0.916767 -1.18416,0.458384 -1.83354,0.84037 -0.11459,0.0764 -0.22919,0.114596 0.38199,2.100925 1.37515,5.042219 3.81986,-0.687575 7.41053,-1.909931 -0.0382,-2.864898 -0.11459,-5.538802 z M 713.04163,66.6223 v 0 q 2.17733,-0.57298 4.24005,-1.184158 -0.0382,-3.246883 -0.0764,-6.531966 -0.38198,0.0764 -0.64937,0.152795 -2.02453,0.534781 -3.05589,1.031363 -1.03137,0.496582 -1.60435,0.878569 l -1.71893,-0.802172 q 1.41335,4.010857 2.86489,6.455569 z"
             id="path2237"
             style="fill:url(#linearGradient1772);stroke:url(#linearGradient1774)" /><path
             d="m 825.23566,40.418039 q 5.19501,1.336952 5.19501,2.52111 v 0.763972 q 0,2.100925 -1.98632,3.170487 -3.97266,-0.267391 -5.99719,-0.190994 l 1.22236,1.527946 -1.22236,6.570164 h 0.42019 q 2.7885,-0.114596 7.56332,-2.979493 h 0.38199 q 0,0.305589 4.01086,2.941295 -1.71894,12.681945 -2.40652,13.598712 l -0.80217,0.420185 -1.18416,0.0382 -3.20868,-2.215521 -1.18416,0.0382 q -3.97266,0.649377 -3.97266,1.718938 v 7.295939 l 0.38199,0.763973 q 0.42019,0 15.54684,-3.246884 4.39285,1.718938 4.39285,2.52111 v 0.802171 q -0.80218,3.476075 -1.98633,3.514274 -7.56333,-0.878569 -10.77202,-0.763973 -17.41857,0.649377 -38.27503,6.41737 -4.77482,-1.871733 -4.77482,-2.521109 v -0.381987 l 18.33534,-3.361479 q 0,-0.229192 -1.60434,-1.871733 0.42018,-3.972658 0.42018,-6.188178 v -1.184158 l -1.22236,0.0382 q -1.18415,0.0382 -6.37917,2.177322 -1.56614,0.0382 -2.7885,-1.833535 0.80217,-3.89626 0.80217,-7.754322 0,-0.954966 -1.18415,-4.583836 l 2.40651,-0.0764 q 1.71894,-0.0764 3.17049,0.649377 1.10776,-0.0382 5.577,-1.375151 v -7.716123 l -0.38199,-0.725774 q -5.6152,1.336952 -7.60153,1.413349 0,-0.687575 -3.17048,-1.795336 v -0.802171 h 0.38198 q 9.58786,-0.343788 31.09369,-6.913952 0,-0.381986 0.80217,-0.420185 z m -15.92883,7.52513 v 0.381987 q 0.68758,-0.0382 1.98633,0.687575 -0.80217,1.795336 -0.80217,5.080418 v 3.05589 l 0.80217,1.145959 v 0.381987 q -1.87173,2.368315 -3.97266,2.444712 l -1.22235,0.0764 -2.36832,-1.489746 -0.42018,0.0382 q -0.99317,0.0382 -3.59068,0.878569 v 0.802171 q 0,6.531966 2.02453,6.455569 0.68758,0 3.97266,-1.68074 4.39284,0.993164 5.19501,2.903096 l -0.42018,6.188178 0.42018,2.712103 0.76398,-0.0382 4.81302,-0.572979 v -0.763973 q 0,-4.965822 -0.80217,-11.917973 0.38199,-0.0382 0.38199,-0.420185 3.85806,0.649377 4.39284,0.611179 L 826.84,63.910197 v -7.716123 h -0.38198 q -1.60435,0.0764 -6.79936,2.559308 -2.02453,0.0764 -4.39284,-2.903096 v -8.518295 q -1.98633,0.0764 -5.95899,0.611178 z"
             id="path2239"
             style="fill:url(#linearGradient1776);stroke:url(#linearGradient1778)" /><path
             d="m 904.80809,34.879237 h 0.38198 q 3.89626,-0.152794 6.45557,2.482911 -0.38198,2.673905 -0.38198,4.316446 v 0.763972 q 4.58383,-1.718938 5.23321,-1.757137 6.41737,1.107761 6.41737,2.52111 v 0.381986 q -3.20869,3.781665 -3.20869,14.133494 -2.06272,4.583836 -3.62887,5.195014 -3.39968,0.152794 -6.03538,-6.379172 0.42018,-0.0382 0.42018,-0.420185 2.9031,1.069562 3.59068,1.031363 0.42018,-1.145959 2.02452,-14.095295 -5.6152,0.190994 -5.6152,2.941295 0,5.844391 -6.45556,13.484117 -2.9413,2.826699 -8.05992,3.017692 v 0.381986 q 3.20869,-0.114596 6.03539,2.52111 -0.38199,2.100924 -0.38199,3.514274 l 1.18416,-0.0382 q 2.8649,-0.878568 3.24688,-0.916767 6.03539,1.260555 6.03539,2.52111 v 0.381986 q -2.10093,0.0764 -4.43104,13.445918 0,1.909932 -4.43105,5.615199 -3.13228,0.114596 -5.23321,-6.837555 0.38199,-0.0382 0.38199,-0.420185 2.21552,1.10776 3.62887,1.031363 1.33695,-0.0382 3.20868,-13.369521 l -3.20868,0.114596 q -0.84037,0.0382 -3.20869,8.327302 -5.386,9.167671 -12.91113,9.435062 v 2.330116 q 0,0.763973 -0.80218,0.802171 l -0.38198,0.0382 q -3.28508,-0.190993 -6.83756,-3.667069 0.80217,-2.559308 0.80217,-3.552472 v -29.60394 q -1.06956,0.0382 -6.03538,1.757137 -1.22236,-1.031363 -1.22236,-2.673904 l 7.25774,-1.031363 V 38.546306 q 0.1146,-0.763973 0.80218,-0.802171 h 0.38198 q 2.8267,-0.114596 6.03539,2.521109 -0.80218,5.462405 -0.80218,10.924809 l 0.80218,-0.0382 1.64254,-1.222356 1.18415,-0.0382 q 2.44472,1.260555 2.44472,1.871733 -0.61118,1.566144 -1.22236,1.604343 l -5.23321,0.190993 v 15.967028 q 0,7.219541 0.80217,18.297144 4.39284,-0.152794 9.24407,-13.598712 0,-0.267391 0.42018,-2.330117 h -0.80217 q -1.98633,0.0764 -4.04905,1.336952 -2.7885,-0.84037 -2.7885,-1.451548 V 71.35893 q 1.18415,-0.0382 8.02171,-1.069561 v -6.608364 q -1.18416,0.0382 -1.18416,-0.725774 5.6152,-2.635705 8.05991,-7.334137 2.7885,-7.295938 2.7885,-10.619219 h -0.38198 q -5.50061,1.757137 -6.45557,1.795335 -1.83354,-1.069561 -2.40652,-1.069561 v -0.763973 q 9.66426,-0.381986 9.66426,-3.858062 v -2.750301 q 0,-0.954966 -0.80217,-3.476076 z m 15.31765,24.026939 q 4.16365,0.687576 7.21954,2.444713 -0.80217,3.552473 -0.80217,5.118616 3.62887,-1.336952 4.85122,-1.37515 5.38601,1.145959 6.03539,2.521109 v 0.381987 q -2.40652,0.114596 -4.85123,17.342178 l -3.62887,4.010857 -1.18416,0.0382 q -2.02452,0.0764 -4.43104,-7.219541 0.38199,-0.0382 0.38199,-0.420185 1.48975,0.725774 3.24688,0.687575 l 1.18416,-0.0764 q 1.22236,-5.347808 2.02453,-14.859268 l -1.60434,0.0382 q -3.28509,0.114596 -4.04906,7.563329 -4.69843,12.261761 -12.45275,12.529151 l -0.80217,0.0382 v -0.763973 q 4.69843,-0.190993 8.86208,-16.310815 V 69.4108 q -0.42019,0 -0.42019,-0.381986 -3.13228,0.993164 -4.43104,1.718938 -2.02453,-1.069562 -2.8267,-1.069562 v -1.145959 l 4.04906,-0.152794 q 2.90309,-0.114596 4.43104,-2.100925 l -0.42019,-2.712103 v -3.132287 l -0.80217,-1.145959 q 0.42019,0 0.42019,-0.381987 z"
             id="path2241"
             style="fill:url(#linearGradient1780);stroke:url(#linearGradient1782)" /><path
             d="m 988.54416,32.931107 q 5.8062,0.649377 5.8062,3.667069 l -0.34379,2.444712 q 14.51543,9.702453 27.54123,14.78287 l 1.7953,0.30559 v 0.687575 q -9.3204,3.170486 -10.1608,3.170486 -1.0696,0.0382 -3.6289,-1.260555 -0.7258,3.323281 -0.7258,5.271412 v 6.340972 q -2.3683,3.246884 -4.3164,3.323281 -1.8717,0.0382 -3.2851,-3.05589 -21.00924,2.368315 -21.00924,5.30961 l -0.38198,0.0382 q -2.06273,0.0764 -5.04222,-1.566144 0.72577,-5.156815 0.72577,-5.653397 v -9.129473 q -5.76799,3.89626 -10.16084,4.583836 v -0.343788 q 15.92883,-12.261761 21.73503,-25.363891 0.68757,-0.190993 1.45154,-3.552473 z m 3.28509,8.671089 q -2.17733,3.055891 -10.16084,11.230398 h 0.34379 q 3.17048,-0.114596 15.96703,-4.46924 0,0.381987 0.34378,0.343788 v -0.343788 z m 9.05305,9.129473 q 0,0.916767 -1.10774,2.482911 l -5.08042,-0.152794 q -3.28508,0.114596 -13.40772,1.527945 l -1.79533,-0.26739 q -1.79534,2.177322 -2.9031,2.21552 v 0.343788 q 1.37515,-0.0764 5.80619,0.496582 20.66542,-1.909931 20.66542,-4.622034 0,-0.496582 -2.1773,-2.024528 z m -2.90307,6.41737 h -0.38199 v 0.381987 q 2.90306,2.062726 2.90306,4.087253 -0.076,0.611178 -6.49373,4.431041 v 1.41335 h 0.34379 q 3.01769,-0.114596 7.25774,-1.336952 v -9.473261 z m -4.69844,1.566144 q 0.34379,3.514274 0.34379,5.271411 l 0.38199,-0.0382 q 0,-0.420185 3.24688,-4.660233 v -1.069562 q 0,-0.687575 -0.72577,-0.649377 h -0.38199 q -2.6739,0.0764 -2.8649,1.145959 z m -13.06393,2.597507 v 0.343788 l 0.34379,1.757137 0.38199,-0.0382 7.60152,-2.712103 v -1.757137 q -8.3273,1.527946 -8.3273,2.406514 z m 3.24689,6.531966 q -0.38199,0.0382 -2.9031,-3.05589 v 0.343787 q 0,0.190993 0.72577,3.858062 l 3.62887,-0.496582 3.62887,-0.114596 v -6.68476 q -4.62203,6.149979 -5.08041,6.149979 z m 15.58504,2.941295 q 2.21551,-0.0764 5.80621,3.323281 -1.4516,2.903096 -1.4516,6.68476 v 9.855247 q 0,0.420185 -2.9031,2.215521 h -0.72574 q -1.68074,0.0764 -4.69843,-2.635706 -6.03538,0.229192 -10.16084,2.826699 -1.56614,0.0764 -4.69843,-2.291918 0.72578,-2.368315 1.06956,-12.643747 -0.34378,-1.260555 -0.34378,-3.858062 l 0.72577,-0.381986 1.45155,-0.0382 q 1.94813,-0.0764 5.4242,0.84037 7.06675,-0.26739 8.70929,-2.7885 0.76397,-1.069562 1.79534,-1.10776 z m -12.29996,6.761157 v 4.583836 l 0.34379,-0.0382 6.91395,-1.642542 0.68757,-0.0382 q 0.57298,0 1.10776,1.031363 v 0.687575 q 0,0.496582 -1.10776,1.107761 l -3.97265,0.152794 q -3.62887,0.190993 -3.62887,0.802171 0,0.763973 0.72577,4.889425 8.70929,-0.687575 8.70929,-2.062726 V 75.789971 l -0.38199,0.0382 q -3.66707,0.114596 -9.39686,1.718937 z"
             id="path2243"
             style="fill:url(#linearGradient1784);stroke:url(#linearGradient1786)" /></g><text
           xml:space="preserve"
           transform="matrix(0.26458333,0,0,0.26458333,8.232327,0)"
           id="text449"
           style="font-weight:500;font-size:25px;font-family:KorolevLiU;-inkscape-font-specification:'KorolevLiU Medium';text-align:center;text-orientation:upright;white-space:pre;shape-inside:url(#rect451);display:inline;fill:none;stroke:url(#linearGradient1788);stroke-width:30.2362" /></g></g><text
       xml:space="preserve"
       transform="matrix(0.40320744,0,0,0.40320744,-218.2094,-105.97534)"
       id="text5790-7"
       style="font-style:normal;font-variant:normal;font-weight:500;font-stretch:normal;font-size:125px;font-family:KorolevLiU;-inkscape-font-specification:'KorolevLiU Medium';text-align:center;letter-spacing:0px;word-spacing:0px;writing-mode:tb-rl;text-orientation:upright;white-space:pre;shape-inside:url(#rect5792-9);display:inline;fill:#000000;fill-opacity:1;stroke:none;stroke-width:24.3024;stroke-dasharray:none"><tspan
         x="-78.125"
         y="0"
         id="tspan2400"><tspan
           dy="0 125 125 125"
           id="tspan2398">lin
</tspan></tspan></text><g
       id="g16632"
       transform="matrix(1.5032555,0,0,1.5032555,9.2522579,26.603914)"
       style="stroke:url(#linearGradient1824)"><g
         id="svg1105"
         style="stroke:url(#linearGradient1818)">
	
		<sodipodi:namedview
   bordercolor="#eeeeee"
   borderopacity="1"
   id="namedview1107"
   inkscape:current-layer="layer1"
   inkscape:cx="31.613635"
   inkscape:cy="42.590592"
   inkscape:deskcolor="#505050"
   inkscape:document-units="mm"
   inkscape:guide-bbox="true"
   inkscape:pagecheckerboard="0"
   inkscape:pageopacity="0"
   inkscape:pageshadow="0"
   inkscape:showpageshadow="2"
   inkscape:snap-bbox="true"
   inkscape:window-height="878"
   inkscape:window-maximized="1"
   inkscape:window-width="1712"
   inkscape:window-x="0"
   inkscape:window-y="0"
   inkscape:zoom="1.1387491"
   pagecolor="#505050"
   showgrid="false"
   showguides="false"
   style="stroke:url(#linearGradient1223)">
		
			<sodipodi:guide
   id="guide19177"
   inkscape:color="rgb(0,134,229)"
   inkscape:label=""
   inkscape:locked="false"
   orientation="-1,0"
   position="25,35.212513"
   style="stroke:url(#linearGradient1223)">
			</sodipodi:guide>
		
			<sodipodi:guide
   id="guide8637"
   inkscape:color="rgb(0,134,229)"
   inkscape:label=""
   inkscape:locked="false"
   orientation="0,1"
   position="51.666992,25"
   style="stroke:url(#linearGradient1223)">
			</sodipodi:guide>
	</sodipodi:namedview>
	
		<path
   id="path85576"
   inkscape:export-filename="/home/linn/path165266.png"
   inkscape:export-xdpi="96"
   inkscape:export-ydpi="96"
   inkscape:transform-center-x="0.00054717329"
   inkscape:transform-center-y="-1.6750655"
   sodipodi:nodetypes="zczczczczcz"
   class="st0"
   d="M 70.9,10.5 C 81.8,10.3 96,36.6 96,36.6 c 0,0 29.5,6.2 32.3,15.6 2.9,9.4 -16.7,32.3 -16.7,32.3 0,0 1.9,30.7 -4.8,35.5 -6.7,4.8 -35.7,-6.4 -35.7,-6.4 0,0 -27.6,12.5 -35.6,6.4 -8,-6.1 -5.3,-36 -5.3,-36 0,0 -19.7,-21.4 -16.9,-32 2.8,-10.6 32.2,-15.6 32.2,-15.6 0,0 14.4,-25.8 25.4,-25.9 z"
   style="stroke:url(#linearGradient1790)" />
	
		<path
   id="path75025"
   inkscape:export-filename="/home/linn/path165266.png"
   inkscape:export-xdpi="96"
   inkscape:export-ydpi="96"
   inkscape:transform-center-x="0.23708871"
   inkscape:transform-center-y="1.3391704"
   sodipodi:nodetypes="zczczczczcz"
   class="st0"
   d="m 14.1,85.8 c -2.8,-11 20,-28.9 20,-28.9 0,0 -5,-29.1 4.6,-36 C 48.3,14 73,31.5 73,31.5 c 0,0 26.8,-13.1 35.3,-6.4 8.5,6.7 0.9,35.6 0.9,35.6 0,0 21.2,21.2 16.7,31.4 -4.5,10.2 -33.7,11.9 -33.7,11.9 0,0 -13,26.4 -24.5,26.1 -11.5,-0.3 -21.9,-28.8 -21.9,-28.8 0,0 -28.9,-4.6 -31.7,-15.5 z"
   style="stroke:url(#linearGradient1792)" />
	
		<path
   id="path66158"
   inkscape:export-filename="/home/linn/path165266.png"
   inkscape:export-xdpi="96"
   inkscape:export-ydpi="96"
   inkscape:transform-center-x="-1.6199986"
   inkscape:transform-center-y="-0.047281698"
   sodipodi:nodetypes="czczczczczc"
   class="st0"
   d="m 37.1,71 c 0,0 -14.5,-21.3 -8.1,-30.3 6.4,-9 31.4,-1.6 31.4,-1.6 0,0 15.7,-20.4 26.3,-17.4 10.6,3 11.3,29.6 11.3,29.6 0,0 24.9,8.3 25,19.3 0.1,11 -24.3,20.2 -24.3,20.2 0,0 -2.1,25.1 -11.7,28.8 -9.6,3.7 -26.4,-16.4 -26.4,-16.4 0,0 -24.8,6.8 -30.8,-2.2 -5.9,-9.1 7.3,-30 7.3,-30 z"
   style="stroke:url(#linearGradient1794)" />
	
		<path
   id="path49333"
   inkscape:export-filename="/home/linn/path165266.png"
   inkscape:export-xdpi="96"
   inkscape:export-ydpi="96"
   inkscape:transform-center-x="0.65968318"
   inkscape:transform-center-y="-0.66761084"
   sodipodi:nodetypes="czczczczczc"
   class="st0"
   d="m 44.5,84.4 c 0,0 -17.2,-11.1 -16.1,-20.2 1.1,-9.1 21.9,-13.9 21.9,-13.9 0,0 5.6,-21.2 13.9,-22 8.3,-0.8 20.1,16.2 20.1,16.2 0,0 20.2,-1.4 24.5,7.4 4.4,8.7 -9,23.6 -9,23.6 0,0 7.6,19.4 1.2,25.6 -6.5,6.2 -25.4,-0.7 -25.4,-0.7 0,0 -17.6,12.3 -24.1,8.6 -6.4,-3.8 -7,-24.6 -7,-24.6 z"
   style="stroke:url(#linearGradient1796)" />
	
		<path
   id="path4489"
   inkscape:export-filename="/home/linn/path165266.png"
   inkscape:export-xdpi="96"
   inkscape:export-ydpi="96"
   inkscape:transform-center-x="-0.09979685"
   inkscape:transform-center-y="0.97386469"
   sodipodi:nodetypes="cczczczczcc"
   class="st0"
   d="m 91.8,42.1 c 6,4.4 1.7,21.4 1.7,21.4 0,0 14.8,11.7 12.2,18.9 -2.6,7.2 -20.8,7.8 -20.8,7.8 0,0 -6.7,16.6 -14.3,16.3 C 63,106.2 56.8,90.2 56.8,90.2 c 0,0 -18,-1.1 -20.3,-8 -2.3,-6.9 11.6,-18.6 11.6,-18.6 0,0 -4,-17.2 1.5,-21.4 5.5,-4.2 21.2,5 21.2,5 0,0 15.5,-8.8 21,-5.1 z"
   style="stroke:url(#linearGradient1798)" />
	
		<path
   id="path1062"
   class="st1"
   style="fill:url(#linearGradient1327);fill-opacity:1;stroke:url(#linearGradient1800);stroke-width:5.1372;stroke-miterlimit:11.3386"
   d="m 92.100002,70.900002 a 21.200001,21.200001 0 0 1 -21.2,21.2 21.200001,21.200001 0 0 1 -21.200001,-21.2 21.200001,21.200001 0 0 1 21.200001,-21.200001 21.200001,21.200001 0 0 1 21.2,21.200001 z" />
	<g
   id="text13604"
   style="stroke:url(#linearGradient1802)">
		<path
   id="path2746"
   class="st2"
   d="m 78.6,56 c 2.2,0.6 3.3,1.1 3.3,1.6 V 58 c 0,0.9 -0.4,1.5 -1.3,2 -1.7,-0.1 -2.9,-0.2 -3.8,-0.1 l 0.8,1 -0.8,4.1 h 0.3 c 1.2,0 2.8,-0.7 4.8,-1.9 h 0.2 c 0,0.1 0.8,0.7 2.5,1.9 -0.7,5.3 -1.2,8.2 -1.5,8.6 l -0.5,0.3 h -0.7 l -2,-1.4 h -0.7 c -1.7,0.3 -2.5,0.6 -2.5,1.1 v 4.6 l 0.2,0.5 c 0.2,0 3.4,-0.7 9.8,-2 1.8,0.7 2.8,1.3 2.8,1.6 v 0.5 C 89.2,80.3 88.7,81 88.2,81 85,80.6 82.8,80.5 81.4,80.5 c -7.3,0.3 -15.4,1.6 -24.1,4 -2,-0.8 -3,-1.3 -3,-1.6 v -0.2 l 11.6,-2.1 c 0,-0.1 -0.3,-0.5 -1,-1.2 0.2,-1.7 0.3,-3 0.3,-3.9 v -0.7 h -0.8 c -0.5,0 -1.8,0.5 -4,1.4 -0.7,0 -1.2,-0.4 -1.8,-1.2 0.3,-1.6 0.5,-3.3 0.5,-4.9 0,-0.4 -0.2,-1.4 -0.7,-2.9 h 1.5 c 0.7,0 1.4,0.1 2,0.4 0.5,0 1.6,-0.3 3.5,-0.9 V 61.8 L 65,61.3 c -2.4,0.6 -4,0.9 -4.8,0.9 0,-0.3 -0.7,-0.7 -2,-1.1 v -0.5 h 0.2 C 62.4,60.5 69,59 78,56.2 78.1,56.1 78.2,56 78.6,56 Z M 68.5,60.7 V 61 c 0.3,0 0.7,0.1 1.3,0.4 -0.3,0.8 -0.5,1.8 -0.5,3.2 v 1.9 l 0.5,0.7 v 0.2 c -0.8,1 -1.6,1.5 -2.5,1.5 H 66.5 L 65,68.1 h -0.3 c -0.4,0 -1.2,0.2 -2.3,0.6 v 0.5 c 0,2.7 0.4,4.1 1.3,4.1 0.3,0 1.1,-0.4 2.5,-1.1 1.8,0.4 2.9,1 3.3,1.8 l -0.2,4 0.3,1.7 h 0.5 l 3,-0.4 v -0.5 c 0,-2.1 -0.2,-4.6 -0.5,-7.5 0.2,0 0.2,-0.1 0.2,-0.3 1.6,0.3 2.5,0.4 2.8,0.4 l 4,-0.6 v -4.9 h -0.2 c -0.7,0 -2.1,0.6 -4.3,1.6 -0.9,0 -1.8,-0.6 -2.8,-1.8 v -5.4 c -0.8,0.1 -2.1,0.2 -3.8,0.4 z"
   style="fill:url(#linearGradient1333);fill-opacity:1;stroke:none" />
	</g>
	<path
   id="path8695"
   class="st3"
   style="display:none;fill:#ff2222;stroke:url(#linearGradient1804)"
   d="m 353.9,189.8 a 42.400002,42.400002 0 0 1 -42.4,42.4 42.400002,42.400002 0 0 1 -42.4,-42.4 42.400002,42.400002 0 0 1 42.4,-42.4 42.400002,42.400002 0 0 1 42.4,42.4 z" />
	<g
   id="layer2-6"
   inkscape:groupmode="layer"
   inkscape:label="Layer 2"
   class="st4"
   style="stroke:url(#linearGradient1816)">
		
			<linearGradient
   id="path4044_1_"
   gradientUnits="userSpaceOnUse"
   x1="-575.6886"
   y1="719.62091"
   x2="-575.55658"
   y2="719.62091"
   gradientTransform="matrix(2.8346,0,0,-2.8346,1702.5513,2110.7402)"
   style="stroke:url(#linearGradient1223)">
			<stop
   offset="0"
   style="stop-color:#000000;stop-opacity:0.5412;stroke:url(#linearGradient1223)"
   id="stop16557" />
			<stop
   offset="1"
   style="stop-color:#000000;stroke:url(#linearGradient1223)"
   id="stop16559" />
		</linearGradient>
		<path
   id="path4044"
   class="st5"
   d="M 70.9,0 V 141.7"
   style="stroke:url(#linearGradient1806)" />
		
			<linearGradient
   id="path4547_1_"
   gradientUnits="userSpaceOnUse"
   x1="-599.45837"
   y1="719.62091"
   x2="-551.86182"
   y2="719.62091"
   gradientTransform="matrix(2.8346,0,0,-2.8346,1702.5513,2110.7402)"
   style="stroke:url(#linearGradient1223)">
			<stop
   offset="0"
   style="stop-color:#000000;stop-opacity:0.5412;stroke:url(#linearGradient1223)"
   id="stop16563" />
			<stop
   offset="1"
   style="stop-color:#000000;stroke:url(#linearGradient1223)"
   id="stop16565" />
		</linearGradient>
		<path
   id="path4547"
   sodipodi:nodetypes="ccc"
   class="st6"
   d="M 138.3,49 130,51.7 3.5,92.8"
   style="stroke:url(#linearGradient1808)" />
		
			<linearGradient
   id="path4549_1_"
   gradientUnits="userSpaceOnUse"
   x1="-590.37158"
   y1="719.62091"
   x2="-560.87347"
   y2="719.62091"
   gradientTransform="matrix(2.8346,0,0,-2.8346,1702.5513,2110.7402)"
   style="stroke:url(#linearGradient1223)">
			<stop
   offset="0"
   style="stop-color:#000000;stop-opacity:0.5412;stroke:url(#linearGradient1223)"
   id="stop16569" />
			<stop
   offset="1"
   style="stop-color:#000000;stroke:url(#linearGradient1223)"
   id="stop16571" />
		</linearGradient>
		<path
   id="path4549"
   class="st7"
   d="M 112.5,128.2 29.2,13.5"
   style="stroke:url(#linearGradient1810)" />
		
			<linearGradient
   id="path4551_1_"
   gradientUnits="userSpaceOnUse"
   x1="-590.37158"
   y1="719.62091"
   x2="-560.87347"
   y2="719.62091"
   gradientTransform="matrix(2.8346,0,0,-2.8346,1702.5513,2110.7402)"
   style="stroke:url(#linearGradient1223)">
			<stop
   offset="0"
   style="stop-color:#000000;stop-opacity:0.5412;stroke:url(#linearGradient1223)"
   id="stop16575" />
			<stop
   offset="1"
   style="stop-color:#000000;stroke:url(#linearGradient1223)"
   id="stop16577" />
		</linearGradient>
		<path
   id="path4551"
   class="st8"
   d="M 29.2,128.2 112.5,13.5"
   style="stroke:url(#linearGradient1812)" />
		
			<linearGradient
   id="path4553_1_"
   gradientUnits="userSpaceOnUse"
   x1="-599.45837"
   y1="719.62091"
   x2="-551.86182"
   y2="719.62091"
   gradientTransform="matrix(2.8346,0,0,-2.8346,1702.5513,2110.7402)"
   style="stroke:url(#linearGradient1223)">
			<stop
   offset="0"
   style="stop-color:#000000;stop-opacity:0.5412;stroke:url(#linearGradient1223)"
   id="stop16581" />
			<stop
   offset="1"
   style="stop-color:#000000;stroke:url(#linearGradient1223)"
   id="stop16583" />
		</linearGradient>
		<path
   id="path4553"
   class="st9"
   d="M 3.5,49 138.3,92.8"
   style="stroke:url(#linearGradient1814)" />
	</g>
</g><g
         id="Layer_2"
         style="stroke:url(#linearGradient1820)">
</g><g
         id="Layer_3"
         style="stroke:url(#linearGradient1822)">
</g></g></g><style
     type="text/css"
     id="style16543">
	.st0{fill:#911F2A;stroke:#F3E5C8;stroke-width:5;stroke-miterlimit:10;}
	.st1{fill:#F3E5C8;stroke:#F3E5C8;stroke-width:5.1372;stroke-miterlimit:11.3386;}
	.st2{fill:#911F2A;}
	.st3{display:none;fill:#FF2222;}
	.st4{display:none;}
	.st5{display:inline;fill:none;stroke:url(#path4044_1_);stroke-width:0.3742;stroke-miterlimit:11.3386;}
	.st6{display:inline;fill:none;stroke:url(#path4547_1_);stroke-width:0.375;stroke-miterlimit:11.3386;}
	.st7{display:inline;fill:none;stroke:url(#path4549_1_);stroke-width:0.375;stroke-miterlimit:11.3386;}
	.st8{display:inline;fill:none;stroke:url(#path4551_1_);stroke-width:0.375;stroke-miterlimit:11.3386;}
	.st9{display:inline;fill:none;stroke:url(#path4553_1_);stroke-width:0.375;stroke-miterlimit:11.3386;}
</style></svg>
